<?xml version="1.0" encoding="UTF-8"?><svg id="Layer_2" xmlns="http://www.w3.org/2000/svg" viewBox="0 0 719.81 545.58"><defs><style>.cls-1{fill:#fefefe;}.cls-1,.cls-2,.cls-3,.cls-4,.cls-5,.cls-6,.cls-7,.cls-8,.cls-9,.cls-10,.cls-11,.cls-12,.cls-13,.cls-14,.cls-15,.cls-16,.cls-17,.cls-18,.cls-19,.cls-20,.cls-21,.cls-22,.cls-23,.cls-24,.cls-25,.cls-26,.cls-27,.cls-28{stroke-width:0px;}.cls-2{fill:#8b6b3b;}.cls-3{fill:#9a6b13;}.cls-4{fill:#fcfcfb;}.cls-5{fill:#975537;}.cls-6{fill:#c0804e;}.cls-7{fill:#e17e4d;}.cls-8{fill:#5e5828;}.cls-9{fill:#050302;}.cls-10{fill:#feca9a;}.cls-11{fill:#ada588;}.cls-12{fill:#661b0c;}.cls-13{fill:#d5d8ca;}.cls-14{fill:#7b845f;}.cls-15{fill:#613824;}.cls-16{fill:#78520e;}.cls-17{fill:#31261d;}.cls-18{fill:#7c5921;}.cls-19{fill:#472712;}.cls-20{fill:#85301e;}.cls-21{fill:#494341;}.cls-22{fill:#190603;}.cls-23{fill:#37241b;}.cls-24{fill:#dda57f;}.cls-25{fill:#ffbb8d;}.cls-26{fill:#6a6e46;}.cls-27{fill:#5f4008;}.cls-29{fill:#a09d6d;stroke:#a09d6d;stroke-miterlimit:10;}.cls-28{fill:#190502;}</style></defs><g id="Layer_1-2"><path class="cls-23" d="m719.26,368.64c-.15.23-.32.46-.5.67-1.49,1.68-3.14,3.22-4.74,4.79-1.72,1.69-1.99,3.53-1.91,6.03.14,4.34.2,4.91-2.9,8.37,4.38,0,5.63.02,10.05.07v-19.93Z"/><path class="cls-8" d="m289.49,414.42c.51,10.25,1.57,20.51,1.37,30.74-.2,10.27-1.67,20.52-2.55,30.79-.26,2.98-.18,6.01-.7,8.94-.74,4.12-1.88,8.16-2.86,12.23-2.99,12.42-6.23,24.78-7.34,37.57-.28,3.18-.89,6.32-1.34,9.48-6.83-.19-13.66-.34-20.48-.59-1.3-.05-2.58-.45-3.87-.69.23-12.99.43-25.98.72-38.97.07-3.22.41-6.43.69-9.64.65-7.5,1.35-15,1.99-22.5.36-4.21.73-8.41.89-12.63.15-3.87.42-7.8-.03-11.62-.99-8.44-3.43-16.7-2.93-25.33.19-3.24-.05-6.51-.09-9.77.22-4.05.44-8.1.66-12.14v-.72c.01-.66.01-1.31.01-1.97.24-.61.68-1.22.7-1.84.21-5.91.36-11.83.53-17.74.33-1.83.67-3.67,1-5.5-.34-.07-.68-.14-1.02-.21-.31,1.47-.62,2.94-.94,4.42-.5,2.8-1.1,5.58-1.47,8.39-.51,3.93-.83,7.87-1.24,11.81-.44,5.38-.88,10.77-1.32,16.15-.27,1.17-.67,2.33-.78,3.52-.52,5.63-.92,11.28-1.45,16.91-.85,9.05-2.08,18.07-2.6,27.13-.74,12.94-1.1,25.91-1.4,38.87-.36,15.35-.48,30.71-.71,46.06h-20.3c-1.5-.67-2.98-1.88-4.5-1.93-5.95-.21-11.92-.05-17.88-.03q-6.12-.1-6.09-5.98c0-.34,0-.68,0-1.01-.2-13.6-.42-27.2-.59-40.8-.06-5.13.02-10.27-.01-15.4-.21-28.53-.45-57.06-.65-85.59-.06-8.33-.03-16.66-.04-24.99-.03-1.17-.05-2.33-.08-3.5.56-1.06,1.12-2.13,1.67-3.19.6.43,1.46.73,1.76,1.31,3.18,6.06,6.26,12.17,9.42,18.24.52.99,1.28,1.86,2.19,3.16.79-1.31,1.33-2.01,1.69-2.8,6.07-13.39,12.18-26.77,18.12-40.22,1.35-3.04,2.12-6.34,3.15-9.52,7.41.18,14.82.36,22.24.51.25,0,.52-.38.77-.58,3.42.23,6.85.45,9.85.65.35,2.55.21,4.71,1.03,6.41.65,1.35,2.41,2.24,3.81,3.13,1.24.79,2.65,1.29,3.99,1.93-.83,1.28-1.39,2.94-2.55,3.77-5.73,4.07-5.89,8.33-3.08,13.4,2.87,5.18,1,8.91-2.51,12.58-3.59,3.75-3.53,4.35.57,7.54,6.48,5.04,6.52,5.6.9,11.27-4.87,4.91-4.99,7.23-.63,12.61.42.52.9,1.01,1.41,1.45,2.07,1.79,1.7,3.45-.24,5.03-1.04.85-2.21,1.57-3.1,2.56-.4.45-.56,1.57-.27,2.05.27.44,1.53.82,1.93.56,2.88-1.83,5.66-3.83,8.47-5.77.91-.02,1.83-.03,2.74-.05,4.55,1.83,5.7,5.75,6.21,10.48,1.75-1.63,2.73-3.39,3.92-4.98.94-1.25,2.14-2.31,3.22-3.46Zm-48.67,21.69c.48-10.44.93-20.38,1.41-30.32.11-2.27-1.03-2.87-3.11-2.85-9.12.06-18.25.06-27.38,0-1.78-.01-2.7.4-2.69,2.42.06,9.34-.06,18.68.12,28.01.02.93,1.59,2.61,2.46,2.63,9.56.19,19.12.12,29.17.12Z"/><path class="cls-8" d="m98.09,545.58c-.69-3.89-1.41-7.77-2.06-11.67-.91-5.44-2.02-10.87-2.61-16.35-1.09-10.16-2.22-20.34-2.68-30.54-.48-10.9-.15-21.84-.28-32.75-.06-5.16-.38-10.32-.58-15.47.67-.4,1.29-.97,2.01-1.17,4.64-1.28,4.94-1.65,3.36-6.2-.46-1.32-1.49-2.47-2.4-3.59-2.59-3.21-3.04-9.22-.87-12.76.46,1.16.93,2.32,1.39,3.48.02.18.02.36,0,.54l.63.77c.71.69,1.38,1.44,2.15,2.07,3.78,3.09,7.21,6.47,8.87,11.22.64,1.83,1.06,3.74,1.6,5.72,2.68-1.55,3.38-6.55,2.83-17.55.72-.03,1.44-.05,2.16-.08.92,1.33,1.83,2.66,2.75,3.98.39-.31.77-.62,1.16-.93-.46-5.93-4.41-12.74,4.23-16.34-.62-1.31-1.14-2.41-1.67-3.51-2.21-4.56-1.53-8.59,2.24-11.82,1.67-1.43,3.63-2.53,5.45-3.79.02.64.04,1.27.06,1.91-2.54.7-2.16,2.73-1.89,4.51.61,4.13,1.4,8.24,2.11,12.35.08.99.16,1.98.25,2.97.49,5.31.98,10.62,1.47,15.92,0,0-.03.06-.03.06-.14.26-.29.52-.43.78-.69,3.38-1.37,6.75-2.06,10.13-2.13,6.88-2.55,13.97-2.01,21.06.63,8.26,2.27,16.48,2.48,24.74.29,11.74-.38,23.5-.55,35.26-.1,6.63.02,13.27-.04,19.9-.02,1.76-.34,3.51-.53,5.26-5.15-.21-10.3-.43-15.44-.64-2.05-.21-4.36-.85-4.31,2.52h-6.77Z"/><path class="cls-1" d="m252.94,412.44c.04,3.26.28,6.52.09,9.77-.5,8.63,1.94,16.89,2.93,25.33.45,3.82.18,7.75.03,11.62-.17,4.21-.54,8.42-.89,12.63-.63,7.5-1.34,15-1.99,22.5-.28,3.21-.62,6.42-.69,9.64-.29,12.99-.49,25.98-.72,38.97,0,.89.01,1.78.02,2.68h-8.8c.23-15.35.35-30.71.71-46.06.3-12.96.66-25.93,1.4-38.87.52-9.06,1.75-18.09,2.6-27.13.53-5.63.93-11.28,1.45-16.91.11-1.19.51-2.35.78-3.52,1.03-.22,2.05-.43,3.08-.65Z"/><path class="cls-14" d="m192.86,369.86c.01,8.33-.02,16.66.04,24.99.2,28.53.44,57.06.65,85.59.04,5.13-.05,10.27.01,15.4.17,13.6.39,27.2.59,40.8,0,.34,0,.68,0,1.01q-.04,5.87,6.09,5.97c.02.65.03,1.31.05,1.96h-41.96c0-.68,0-1.35.01-2.03,8.79-.01,17.59-.09,26.38,0,2.47.03,3.37-.78,3.39-3.3.12-11.92.46-23.83.62-35.74.27-21.6.45-43.2.7-64.79.21-17.88.48-35.76.69-53.64.06-5.4.01-10.81.01-16.21.91,0,1.82,0,2.73,0Z"/><path class="cls-1" d="m124.61,543.7c.18-1.75.51-3.51.53-5.26.06-6.63-.05-13.27.04-19.9.17-11.75.84-23.52.55-35.26-.2-8.26-1.85-16.47-2.48-24.74-.54-7.09-.12-14.18,2.01-21.06,1.06,0,2.13,0,3.19,0,.03.79.02,1.58.1,2.36,1.15,11.35,3.08,22.68,3.3,34.04.37,18.94-.34,37.89-.61,56.84,0,.65-.33,1.31-.31,1.95.09,3.84.25,7.68.38,11.52-.24.46-.49.92-.73,1.39h-6.09c.04-.63.08-1.26.12-1.88Z"/><path class="cls-11" d="m130.58,545.58c.24-.46.49-.92.73-1.39,9.01-.21,18.02-.43,27.03-.64v2.03h-27.76Z"/><path class="cls-13" d="m251.72,545.58c0-.89-.01-1.78-.02-2.68,1.29.24,2.57.64,3.87.69,6.82.25,13.65.4,20.48.59.24.47.47.93.71,1.4h-25.04Z"/><path class="cls-26" d="m200.29,545.58c-.02-.65-.03-1.31-.05-1.96,5.96-.02,11.93-.18,17.88.03,1.52.05,3,1.26,4.5,1.93h-22.33Z"/><path class="cls-11" d="m124.61,543.7c-.04.63-.08,1.26-.12,1.88h-6.09c-1.31-.46-2.59-1.02-3.92-1.37-1.75-.47-3.53-.78-5.3-1.15,5.15.21,10.3.43,15.44.64Z"/><path class="cls-26" d="m109.17,543.05c1.77.38,3.56.69,5.3,1.15,1.34.36,2.62.91,3.92,1.37h-13.54c-.05-3.37,2.25-2.73,4.31-2.52Z"/><path class="cls-12" d="m113.09,366.96l-2.57,12.86c-.02.27.02,20.63.05,20.9l1.95,16.1c.14,1.09,6.12,12.34,7,13l3.52,2.88c1.5,1.12,3.58,1.06,5.02-.15l2.73-2.3c.73-1.43,1.22-3.07-1.27-4.43l-3-2c-1.08-.59-3-4-4-5l-2-5c-.03-.15-2.45-9.99-2-16l-1.61-16.51c-.25-.86-.21-1.79.13-2.62l5.21-13.11c.33-.83.38-1.74.13-2.6h0c-.3-.14-.72-2.04-2.3-2.14s-4.55-.09-5.3,1.66l-1.37,3.19c-.17.41-.28.84-.31,1.28Z"/><path class="cls-3" d="m93.37,419.09c.02-.18.02-.36,0-.54.66-3.38,1.31-6.75,1.97-10.13-1.52-3.08-2.17-6.81-6.04-8.15,0-1.57,0-3.15,0-4.72,1.01-1.57,2.25-3.04,2.98-4.73,2.5-5.78,1.84-11.79,1.09-17.8-.53.87-.69,1.79-.69,2.7-.02,5.67.2,11.36-2.79,16.57-.52.9-.42,2.16-.61,3.25-9.08-2.2-5.17-9.03-5.08-14.56-2.42,2.27-3.14,10.99-.41,13.5,1.96,1.8,3.68,3.86,5.5,5.8,1.57,2.7,3.14,5.4,4.71,8.11-.68,2.23-1.36,4.46-2.03,6.69-2.16,3.54-1.72,9.56.87,12.76.9,1.12,1.94,2.27,2.4,3.59,1.58,4.55,1.28,4.92-3.36,6.2-.72.2-1.34.77-2.01,1.17-3.88.2-5.39,2.21-4.46,5.9.45,1.79.83,3.59,1.24,5.38l-.78.55c-3.47-2.92-6.93-5.85-10.41-8.77-.73-.61-1.5-1.18-2.26-1.77-.02-1.33-.04-2.66-.05-3.99,3.09-1.79,6.01-3.78,6.63-7.66.3-1.85.02-3.86.61-5.58,1.07-3.1.25-5.85-.71-8.7-.49-1.45-.83-2.95-1.24-4.43-.7-2.77-1.31-5.56-2.13-8.29-1-3.35-2.19-6.65-3.29-9.97.13-3.11-.16-6.31.51-9.3.73-3.31,2.33-6.42,3.55-9.62-.78-3.1-.86-6.65-2.49-9.22-3.32-5.24-4.32-9.95-.41-15.28,1.78-2.43,2.63-5.25,2.02-8.54-.72-3.87-.83-7.85-1.12-11.79-.12-1.59-.02-3.2-.02-4.8l-1.21-.15c-.27,1.03-.63,2.04-.79,3.09-.19,1.32.18,2.89-.4,3.96-1.26,2.31-.71,4.16.35,6.32,2.49,5.08,1.92,8.91-1,12.03-1.12,1.2-2.31,3.06-2.19,4.52.27,3.26,1.22,6.49,2.12,9.67.96,3.39,4.36,6.18,2.49,10.26-.69,2.35-.95,4.94-2.16,6.98-2.3,3.88-2.42,7.76-1.26,11.89,1.03,3.19,2.12,6.36,3.08,9.58.65,2.19,1.11,4.44,1.66,6.66.35,1.83.79,3.65,1.02,5.5.61,4.83,1.16,9.68,1.63,14.52.05.47-.6,1.41-.97,1.42-.66.04-1.58-.27-1.98-.77-.52-.64-.64-1.6-.93-2.42-.04-1.68,0-3.37-.12-5.05-.34-4.92-2.39-7.06-6.02-6.84-3.48,5.88-1.66,11.06,1.2,16.49,1.32,2.5.99,5.87,1.4,8.84-3.35,3.62-1.77,7.98-1.76,12.08,0,1.28.4,2.56.68,4.27-6.07-.33-10.91-2.54-14.11-6.9-1.27-1.72-.71-5.06-.37-7.58.24-1.77,1.49-3.42,2.32-5.1,1.48-3.01.41-5.66-3.8-9.33-3.21-2.8-3.41-3.14-.23-5.54,5.82-4.39,3.06-8.67-2.33-10.31-.45-1.76-.89-3.53-1.34-5.29,1.58-1.8,3.16-3.59,4.75-5.39,4.22-2.35,5.55-7.96,2.74-11.52-1.24-3.92-.32-7.22,2.08-10.61,3.06-4.32,3.43-9.11.3-13.78-.73-1.08-1.36-2.23-2.04-3.34-.38.2-.77.4-1.15.6.3.86.43,1.83.92,2.56,2.77,4.21,2.69,9.42-.31,13.65-3,4.23-3.14,7.16-.52,10.97.76,4-1.22,7.31-2.72,10.74-2.84,2.49-7.02,3.95-6.8,8.8-2.06,1.18-4.12,2.36-6.18,3.54.22.45.43.9.65,1.35,2.21-.81,4.42-1.62,6.92-2.53v7.07c-.21,7.04-.43,14.08-.63,21.12-.16,5.59-4.32,8.18-8.36,10.57-2.2,1.31-4.95,1.69-7.46,2.48-.18-.24-.37-.48-.55-.72.67-1.41,1.26-2.87,2.04-4.23,4.3-7.48,5.28-14.81.07-22.47-.9-1.32-.39-4.52.66-6.03,1.91-2.73,1.82-4.93-.02-7.32-1.22-1.59-1.81-2.97-.15-4.68.56-.57.86-1.62.89-2.46.1-3.1.04-6.2.04-9.38-8.34,4.03-13.61,11.17-16.54,20.09-1.02-.34-1.5-.36-1.6-.56-2.65-5.34-4.35-10.99-2.73-16.86.55-2.01,2.74-4.07,4.71-5.08,4.54-2.35,6.26-5.41,4.03-9.92-1.05-2.14-.48-3.22.94-4.54,1.32-1.23,2.58-2.51,3.81-3.83,1.85-1.98,1.49-3.6-.97-4.65-2.86-1.23-5.75-2.39-8.57-3.69-4.04-1.86-4.57-4.16-1.44-7.17,7.27-6.97,5.1-6.4.11-12.95-3.05-4.01-6.02-3.42-9.63-3.42-1.56,0-3.17-.03-4.67-.42-3.19-.83-3.52-2.39-1-4.59,2.54-2.22,5.31-4.18,7.76-6.5,2.28-2.15,1.93-2.92-.97-4.14-1.92-.81-3.82-1.78-5.5-3-3.04-2.2-3.05-3.03-.34-5.7,2.35-2.32,4.92-4.51,4.09-8.31-.35-1.6-.72-3.37-1.65-4.64-6.62-9.09-4.91-18.28-.85-27.71,1.65-3.84,3.42-7.92,3.69-11.98.2-2.98-1.88-6.15-3.11-9.18-1.29-3.19-3.31-6.18-4.06-9.48-1.26-5.55,2.57-9.28,6.02-12.86,5.35-5.57,6.13-10.36,2.48-17.13-.43-.79-.87-1.57-1.34-2.34-3.83-6.23-3.41-8.87,1.75-14.08,3.86-3.89,5.93-8.32,3.28-13.89-.74-1.56-1.12-3.35-1.35-5.07-.55-4.03-.13-7.81,3.34-10.67,1.73-1.43,3.29-3.08,4.91-4.64,4.03-3.89,4.54-9.02,1.37-13.68-.7-1.02-1.47-2-2.14-3.04-3.17-4.9-2.86-8.48,1.65-12.32,2.98-2.54,6.41-4.54,9.65-6.77,1.28-.88,2.58-1.73,3.82-2.56-3.77-9.95-3.64-21.11,7.78-27.78,7.32-4.28,8.41-8.38,5.52-16.77-2.4-6.96-.93-12.33,4.74-17.01,5.17-4.27,8.61-9.41,10.2-16.11,1.15-4.87,5.38-7.52,10.06-9.01,3.89-1.24,8.06-1.8,11.73-3.49,4.58-2.11,7.02-6.51,9.09-10.94,4.09-8.76,10.55-14.68,20.1-16.92,1.4-.33,2.89-.3,4.34-.44,2.71-.18,5.43-.35,8.14-.53.43-.02.86-.03,1.29-.05-.56,1.92-1.12,3.84-1.69,5.75.24.18.49.36.73.54,1.7-1.66,3.39-3.31,5.09-4.97,0,0,.03-.01.03-.01.44-.22.88-.45,1.32-.67,4.75-4.15,10.3-6.11,16.59-6.13,9.04-.02,18.09-.23,26.88,2.6,1.22.39,2.92.02,4.18-.51,10.52-4.38,21.41-6.3,32.6-3.94,3.66.77,7.1,3.26,10.26,5.5,4.75,3.36,8.83,7.76,13.8,10.68,5.2,3.05,11.27,4.18,17.44,3.91,5.93-.26,10.35,2.36,13.53,7.21.98,1.5,2.04,3.01,2.7,4.66,3.2,8.01,9.81,10.66,17.67,11.75,6.12.86,12.69,1,16.63,7.08,1.22,1.89,2.67,3.68,3.55,5.72,2.07,4.79,5.2,8.61,9.37,11.72,1.6,1.2,2.94,2.76,4.3,4.25,2.9,3.17,6.48,5.23,10.71,5.67,8.4.89,11.49,4.25,9.36,12.44-1.74,6.68,2.31,12.8,7.32,15.34,2.21,1.12,4.39,2.29,6.54,3.52,5.66,3.25,6.72,7.36,3.77,13.3-.96,1.93-1.72,4.16-1.78,6.28-.07,2.56,1.28,4.48,4.11,5.36,8.97,2.82,12.41,5.55,6.09,16.06-3.57,5.94-2.8,10.02,2.2,14.94,3.03,2.98,3.36,5.4,1.15,9.01-.82,1.34-1.63,2.73-2.69,3.88-5.3,5.76-5.22,12.14-2.4,18.91.16.4.14.87.21,1.3-8.26,1.27-10.08-3.76-9.58-11.09-3.26,3.43-2.19,5.97-.4,8.71,2.9,4.43,7.82,5.19,12.13,7.09,0,0-.05-.04-.05-.04.21.25.41.5.62.75,5.48,2.93,4.73,7.05,1.9,12.63-.83,1.65-1.77,3.24-2.54,4.91-2.08,4.52-.05,7.88,3.1,10.98,2,1.96,4.13,3.87,5.71,6.15,2.71,3.91,2.8,8.03.4,12.34-4.67,8.37-5.33,16.77.34,25.11,3.78,5.56,4.14,12.51-2.01,18.1-7.67,6.97-7.41,7.76-.11,15.14,2.44,2.47,3.07,6.65,1.27,9.96-1.01,1.87-2.18,3.73-3.63,5.26-2.21,2.32-1.87,4.3.09,6.45,1.39,1.52,2.71,3.1,4.33,4.96-3.1,1.46-5.6,2.47-7.9,3.8-.97.56-1.53,1.83-2.27,2.78-.67,1.12-1.34,2.23-2.01,3.35-1.81-1.92-4.66-3.61-5.14-5.82-.5-2.29,1.29-5.08,2.17-7.94-1.05-.48-2.41-1.17-3.81-1.74-1.41-.57-2.88-1.02-4.32-1.53-.32.19-.64.38-.96.57,1.17,3.61,2.33,7.22,3.51,10.82.58,1.77,1.44,3.5,1.71,5.31.52,3.46.15,6.75-3.25,8.88-1.53.96-3,2.03-4.49,3.04.21.5.42.99.64,1.49,1.84,1.14,3.65,2.33,5.52,3.42,2.94,1.7,3.52,3.75.82,5.68-2.9,2.08-6.41,3.39-9.78,4.68-.64.25-1.91-1.11-2.89-1.73.59-.71,1.06-1.6,1.79-2.09,3.04-1.99,3.03-2.94-.28-4.69-2.74-1.45-5.52-2.82-8.28-4.22.13-2.32-.24-4.83.52-6.93,1.12-3.06,1.19-6.2-.43-7.75-1.04,4.14-2.18,8.49-3.19,12.86-.18.77.15,1.67.24,2.5.68,2.18,1.14,4.45,2.08,6.51,1.59,3.52.6,6.76-.72,9.96-.72,1.74-1.92,3.28-2.89,4.91-2.98,5-2.1,6.7,3.67,7.1.01,1.12.03,2.24.04,3.36-2.14.97-3.84,2.14-2.1,4.8-.46.9-.92,1.79-1.37,2.69-3.43-.71-6.85-1.45-10.29-2.11-1.58-.3-3.12-1-2.43-2.71,1.76-4.35.09-7.16-3.49-9.4.81-3.89,1.31-7.89,2.52-11.66,1.59-4.95.61-9.64-.47-14.4-.8-3.52-1.77-7-2.67-10.5,3.76-4.35,8.67-7.96,8.81-14.67-.98.41-1.64,1.1-2.08,1.91-1.96,3.54-3.51,7.39-7.38,9.43.1-1.39-.04-2.84.34-4.14,1.34-4.53,2.87-9,4.32-13.5-1-5.1-3.4-9.31-7.68-12.42-.22.87-.27,1.68.06,2.28,2.11,3.72,5.33,6.89,5.6,11.51-.83,2.16-1.61,4.34-2.52,6.47-.82,1.94-2.68,3.9-2.51,5.72.52,5.91.56,11.86,3.48,17.51,3.11,6.02,1.61,12.56-.1,18.88-.61,2.25-.67,4.64-.98,6.96-2.06,3.97-.3,7.41,1.65,10.7,3.76,6.33,3.59,7.92-1.84,12.45-2.21,1.84-2.59,4.82-1.04,8.22,2.06,4.52,1.95,5.37-2.26,7.49-2.54,1.27-2.94,2.5-2.07,5.21,1.57,4.9.8,6.55-3.75,9.36-3.09,1.91-6.42,3.43-10.13,5.38-.66-4.03,1.33-6.07,3.13-8.13,3.05-3.48,3.02-3.8-.67-6.32-2.63-1.79-4.32-3.7-2.37-7.27.62-1.15-.06-3.63-.99-4.86-1.46-1.92-3.58-3.35-5.56-4.81-.31-.23-1.33.49-2.02.77-1.08,1.15-2.28,2.21-3.22,3.46-1.19,1.6-2.17,3.35-3.92,4.98-.51-4.73-1.66-8.65-6.21-10.48-1.2-3.2-4.33-5.84-2.49-10.02-.91.55-1.33,1.01-1.61,1.54-1.7,3.17.74,5.71,1.35,8.53-2.81,1.94-5.59,3.94-8.47,5.77-.4.26-1.66-.12-1.93-.56-.29-.48-.14-1.61.27-2.05.89-.98,2.06-1.71,3.1-2.56,1.94-1.58,2.31-3.24.24-5.03-.51-.44-.98-.93-1.41-1.45-4.36-5.38-4.24-7.7.63-12.61,5.62-5.67,5.58-6.23-.9-11.27-4.11-3.19-4.16-3.79-.57-7.54,3.51-3.67,5.38-7.4,2.51-12.58-2.81-5.08-2.65-9.33,3.08-13.4,1.16-.82,1.72-2.49,2.55-3.77-1.34-.63-2.75-1.14-3.99-1.93-1.4-.89-3.16-1.78-3.81-3.13-.82-1.7-.67-3.87-1.03-6.41-3-.2-6.42-.42-9.85-.65-.51-.2-1-.55-1.52-.57-7.68-.26-15.37-.47-23.06-.69-.15.03-.3.04-.44.03-3.22-.92-6.43-1.85-9.65-2.77-.15-.04-.3-.06-.46-.07-.71-.65-1.42-1.3-2.14-1.95h0c-.23-.21-.46-.44-.69-.67l.02.02c-.25-.44-.49-.88-.74-1.32h0c-1.3-1.78-2.6-3.58-3.9-5.37-.97-3.35-1.93-6.7-2.84-9.85,3.36-1.67,6.25-3.1,9.13-4.56,15.65-7.94,29.68-17.8,39.41-32.84,2.42-3.73,5.12-7.28,7.69-10.92,2.02,3.31,1.17,10.76-1.05,14.3-1.41,2.24-2.77,5.04-2.72,7.56.12,6.23,1.06,12.44,1.68,18.65-2.09.97-4.57,1.52-6.16,3.02-1.56,1.47-3.33,4.06-3.05,5.86.54,3.47,2.45,6.72,3.79,10.06.55,1.92,1.11,3.85,1.66,5.77.52-.23,1.03-.47,1.55-.7-1.06-1.7-2.12-3.39-3.19-5.09-.73-2.54-1.33-5.13-2.22-7.62-.9-2.51-.62-4.54,1.53-6.25,2.06-1.64,4.07-3.35,6.11-5.03,2.51-2.64,2.12-5.51,1.11-8.73-1.64-5.23-3.48-10.88.24-15.74,3.91-5.1,3.54-10.86,3.95-16.57.05-.71-1.28-1.51-1.96-2.27.25-2.67.04-5.51.88-7.98,1.16-3.41.75-7.89,5.37-9.4-.14-.7-.17-1.27-.36-1.78-3.87-10.91-3.12-21.37,2.88-31.41,1.08-1.8,2.1-3.92,2.22-5.95.2-3.5.78-7.65-.75-10.46-5.96-10.9-3.94-22.18-2.99-33.53.31-3.72,1.91-8.36-2.7-10.55-8.72-4.14-11.14-11.06-9.93-19.96.05-.33,0-.67,0-1.01-.02-5.3-.21-6.04-5.21-7.63-7.73-2.45-10.68-7.99-11.04-15.48-.27-5.71-2.54-9.93-8.3-11.76-1.18-.37-2.28-1-3.48-1.26-3.57-.77-5.96-2.97-7.78-5.99-1.16-1.93-2.3-3.88-3.65-5.67-.71-.94-1.81-2.15-2.8-2.21-4.2-.28-8.8-1.29-12.57,0-11.53,3.93-22.83,4.19-34.34.5-1.5-.48-3.03-.87-4.56-1.24-4.55-1.11-12.52.92-13.92,3.92-2.85,6.09-7.75,8.67-14.14,9.39-2.03.23-4.2.91-5.91,2.01-2.87,1.84-3.56,4.93-3.63,8.21-.06,3,.47,6.36-.69,8.92-1.98,4.37-4.94,8.32-9.9,10.09-6.66,2.36-10.02,6.87-9.04,14.16.88,6.57-2.27,11.48-6.71,15.81-.96.94-1.9,1.91-2.85,2.86-5.48,1.32-9.18,9.23-5.93,14.56,0-1.97-.14-3.17.03-4.33.68-4.61,1.49-7.36,5.75-7.55.7,3.97.72,8.23,2.25,11.86,2.34,5.59,1.38,10.15-1.9,14.83-2.23,3.18-2.53,7.22-.7,10.29,3.92,6.59,2.99,13.57,2.35,20.37-.54,5.69-.03,10.99,3.15,15.46,5.28,7.41,5.42,15.08,3.23,23.43-.7,2.67-.03,5.7,0,8.57,1.55,3.4,3.09,6.82,4.74,10.17.04.08,1.32-.46,2.03-.7.2.08.47.11.6.25,14.53,15.8,31.14,28.8,50.64,38.02,4.72,2.23,4.79,2.87,3.83,8.03-.48,2.61-1.43,5.14-2.16,7.7-.29.22-.57.44-.86.67-.22.21-.45.42-.67.63-.17.01-.33.03-.5.05-12.45,6.06-26.19,4.72-39.33,6.83-1.7-.93-3.4-1.87-5.15-2.83.34,1.94.72,4.06,1.1,6.19-.36,1.61-.92,3.21-1.04,4.85-.23,3.04-.42,6.11-.25,9.15.2,3.63,1.59,7.36,1.05,10.83-.86,5.46.56,10.35,1.78,15.42.78,3.23,1.24,6.54,1.85,9.82-.77-.11-1.54-.22-2.24-.32.85,1.97,1.51,3.5,2.16,5.02-1.83,1.25-3.78,2.35-5.45,3.79-3.77,3.23-4.45,7.26-2.24,11.82.53,1.1,1.05,2.2,1.67,3.51-8.64,3.6-4.7,10.41-4.23,16.34-.39.31-.77.62-1.16.93-.92-1.33-1.83-2.66-2.75-3.98-2.59-3.16-4.22-6.61-3.39-10.83,3.23-1.95,2.64-4.94,2.47-8.02-.16-2.94-.3-6.16.72-8.81,1.38-3.54.8-6.43-1.23-9.1-2.41-3.16-2.78-6.41-1.59-10.02,1.62-4.94,1.56-9.62-1.63-14.05-.8-1.11-.95-2.68-1.4-4.04,3.47-1.58,6.69-3.48,6.72-7.88.03-3.94-1.53-7.19-5-9.36.5,1.54,1.39,2.88,2.2,4.26,2.32,3.97,2.01,5.9-1.21,9.27-1.05,1.1-1.87,2.42-2.79,3.64-.3.74-1,1.62-.81,2.21.53,1.69,1.78,3.21,2.11,4.92.55,2.85,1.51,6.1.66,8.63-1.6,4.78-1.22,8.85,1.02,13.23,1.1,2.15,1.74,4.84,1.62,7.24-.31,5.98-1.18,11.92-1.83,17.88-2.23,3.35-1.86,6.71,1.21,10.9.55,11-.15,16-2.83,17.55-.55-1.98-.96-3.89-1.6-5.72-1.66-4.74-5.09-8.12-8.87-11.22-.77-.63-1.43-1.38-2.15-2.07-.21-.26-.42-.51-.63-.77Zm-53.57-88.43c1.6-2.24,3.2-4.47,4.8-6.71,3.21-2.97,2.44-8.23-2-11.01,3.35,3.16,1.93,6.76,1.36,10.29-.04.22,0,.45,0,.67-2.01,2.05-4.02,4.1-6.04,6.15-1.69,2.92-3.65,5.84-.08,8.81,1.15,4.13,4.4,7.8,2.51,12.8,1.18-.68,2.1-1.44,2.07-2.16-.08-2.19-.28-4.43-.9-6.52-.79-2.65-2.03-5.16-3.08-7.73.45-1.53.9-3.06,1.34-4.59Zm244.33,35.84c-.17,2.43-.35,4.85-.52,7.28-2.76,1.56-4.05,6.75-2.59,9.29.83-2.91,1.74-6.08,2.64-9.24,3.08-1.95,3.66-5.08,1.84-9.89-.89-2.13-1.78-4.26-2.66-6.39-.55.22-1.1.44-1.65.67.98,2.76,1.96,5.52,2.94,8.28Zm50.12-37.95c-2.06,2.71-1.88,9.04.52,11.85.3-3.82.59-7.45.88-11.08,1.79-6.29,2.29-12.48-1.38-18.36-.24-3.65,1.04-6.49,4.2-8.52.66-.43.88-1.55,1.52-2.76-4.74.74-9.06,6.33-8.32,10.12.14.75,1.22,1.31,1.86,1.96,2.39,5.5,3.03,11.08.72,16.78ZM21.59,294.21c-3.94-4.76-3.09-9.98-1.48-15.28.05-.17-.3-.46-.87-1.27-1.74,5.9-2.94,11.17-.25,16.58,2.25,3.39,3.83,6.86,1.31,10.82.32,4.67.46,9.36,1.07,13.99.21,1.63,1.53,3.14,2.39,4.67,1.8,3.18-.2,5.66-1.45,8.29-2.1,2.41-4.2,4.82-6.29,7.23.32.25.63.5.95.75,3.02-1.96,6.34-3.66,6.69-7.96,2.75-2.74,3.69-5.72,1.35-9.24-1.21-1.82-2.95-3.66-3.21-5.65-.53-4.01-.2-8.13-.23-12.21,3.53-4.36,3.54-5.57.04-10.71Zm253.7-2.01c.5,2,1.01,4,1.51,6-.91,1.24-1.65,2.65-2.76,3.68-2.55,2.37-2.95,4.58-1.5,8.01,1.03,2.44.69,5.88-.11,8.55-.69,2.28-3.01,4.04-4.41,6.16-.67,1.01-.88,2.32-1.3,3.5,1.46-1.12,2.13-2.54,3.14-3.65,1.04-1.14,2.54-1.85,3.59-2.99.85-.91,1.86-2.17,1.85-3.27-.02-2.85-.8-5.69-.83-8.54-.03-1.95.47-3.98,1.13-5.84.54-1.51,1.66-2.81,2.53-4.21,1.97-1.91,1.05-5.8-1.96-8.23-4-5.05-.03-9.38,1.86-14.19-5.75,2.22-7.05,11.27-2.73,15.02Zm-158.92,28.99c.46,2.55,2.04,4.08,4.03,5.25.29-.28.58-.57.87-.85-1.64-1.47-3.27-2.93-4.91-4.4-.38-3.79.57-7.1,2.7-10.37,2.99-4.58,2.73-8.15,0-11.25-.74-1.08-1.31-2.34-2.26-3.19-2.87-2.6-4.36-5.69-3.83-9.57.5-3.64,1.15-7.26,1.68-10.9.13-.93.02-1.9.02-2.85-.3-.01-.61-.02-.91-.03-.71,4.04-1.65,8.06-2.07,12.13-.71,6.87,2.07,12.01,7.38,14.41,1.11,5.23-.41,9.75-3.25,14.17-1.47,2.29-1.54,5.11.54,7.46Zm238.98-155.52c-2.06-1.55-4.12-3.1-6.19-4.65.05-11.78-2.48-21.63-6.68-24.83.27.83.44,1.31.59,1.8,1.19,3.92,2.65,7.78,3.49,11.77.77,3.68.87,7.49,1.26,11.25.11.86-.08,2.2.39,2.49,2.25,1.38,4.67,2.47,7.03,3.66,2.75,4.44,5.82,8.73,2.88,14.43-.79,1.52-.56,3.57-.8,5.37.39.02.79.05,1.18.07,2.04-6.33,3.45-12.7-.2-19.02-.58-1.01-1.95-1.56-2.95-2.32Zm-4.85,136.61c2.66,5.36,5.32,10.72,7.98,16.07.3-.12.59-.24.89-.36-.51-1.51-.86-3.11-1.57-4.52-1.89-3.78-3.94-7.47-5.92-11.2-.46-3.33,2.39-4.6,4.17-6.44,3.1-3.21,4.76-6.73,3.56-11.77-.63.99-1.16,1.48-1.29,2.07-1.14,4.89-3.79,8.61-7.94,11.5-1.64,1.14-1.5,3.14.13,4.65ZM30.97,363.23c1.4.27,2.12.49,2.86.54,5.42.38,7.41,2.46,6.64,7.64-.21,1.46-1.48,2.9-2.57,4.07-1.99,2.13-2.73,4.25-1.21,6.97,1.88,3.37,1.76,6.77-.42,10.25,2.8.39,3.58-1.51,3.51-3.37-.11-2.74-1-5.43-1.28-8.17-.15-1.5-.29-3.61.55-4.5,4.32-4.57,4.86-7.07,1.68-12.3-1.36-2.24-1.91-4.43-.94-6.99.47-1.24.48-2.65.7-3.99-.33-.13-.65-.27-.98-.4-.55.95-1.64,1.95-1.55,2.83.47,4.34-.66,6.97-5.65,6.4-.23-.03-.51.36-1.35,1.01Zm258.89,47.28c.25.22.5.43.76.65,9.66-8.49,12.32-16.32,8.07-24.61-.17,1.81-.52,3.77.08,5.39,2.14,5.86-.3,9.79-4.71,13.33-1.7,1.37-2.81,3.47-4.19,5.24Zm-7.69-25.26c0,3.23.91,6.82-.25,9.53-1.22,2.84-4.42,4.83-7.3,7.73,4.58-1.25,7.63-3.65,9.45-7.09,1.91-3.61.73-7.14-1.91-10.16ZM42.32,122.4c2.69-1.64,4.88-12.35,2.69-17.66-.97,6.4-1.86,12.25-2.69,17.66Zm80.19,261.12c-1.75-4.56-3.26-8.48-4.77-12.4-.44.2-.89.39-1.33.59,1.34,4.01.38,9.05,6.1,11.81Zm-80.55-92.61c-3.19,5.17-3.44,9.81-1.84,14.58.57-4.5,1.15-9.08,1.84-14.58Zm4.02-187.57c.28.34.57.68.85,1.02,2.06-1.67,4.12-3.35,6.17-5.02-.31-.37-.62-.74-.93-1.11-2.03,1.7-4.06,3.41-6.1,5.11Zm216.46,228.67c.48-.48.96-.95,1.45-1.43-1.01-.93-2.02-1.85-3.04-2.78-.41.41-.83.82-1.24,1.22.94.99,1.89,1.99,2.83,2.98ZM37.73,125.64c.32.31.64.62.96.93.6-.67,1.21-1.34,1.81-2.01-.32-.3-.64-.61-.96-.91-.6.66-1.21,1.33-1.81,1.99Z"/><path class="cls-8" d="m524.75,451.62c1.52,6.47,3.79,12.89,4.29,19.45.86,11.28.78,22.64.78,33.96,0,10.53-.42,21.06-.56,31.58-.03,1.97-.61,2.85-2.69,2.9-7.4.15-14.79.39-22.18.68-1.95.08-2.74-.58-3.04-2.59-1.44-9.73-3.3-19.4-4.54-29.14-1.03-8.14-1.48-16.36-2.07-24.55-.33-4.67-2.29-20.44-2.49-25.12,3,.64,6.2,9.83,7.11,7.51,2.47-6.33,4.32-12.8,3.4-19.69-.23-1.72-.96-3.36-1.19-4.16.68-4.25,1.5-7.76,1.76-11.31.83-11.18,1.55-24.36-.31-35.56-.6-3.62-.27-5.41-.2-9.13.17-9.21.01-18.45.78-27.61.58-6.93,3.93-12.93,8.44-18.39,2.44-2.96,4.11-6.67,5.59-10.26,1.24-3.03,2.88-4.15,6.23-4.39,7.13-.51,14.24-1.56,21.29-2.76,1.58-.27,2.91-2.02,4.36-3.09.8.14,1.6.29,2.4.43,2.15,4.79,4.24,9.61,6.45,14.37,6.08,13.1,12.21,26.19,18.35,39.26.44.94,1.11,1.77,1.98,3.12,1.04-1.5,1.82-2.42,2.37-3.47,3.08-5.84,6.06-11.74,9.21-17.55.43-.8,1.59-1.22,2.41-1.81,1.19,1.36,2.38,2.71,3.57,4.07-2.38,2.02-1.39,4.68-1.43,7.18-.19,15.06-.4,30.12-.62,45.18-.22,15.73-.5,31.47-.67,47.2-.28,25.18-.5,50.37-.74,75.56-.02,2.14-.04,4.27-.06,6.41h-58.02c0-4.64-.05-8.74.03-12.83.03-1.43.54-2.85.56-4.27.26-18.06.82-36.12.55-54.17-.16-10.52-1.75-21.01-2.54-31.52-.47-6.16-.64-12.34-.95-18.51.49-11.96.97-23.91-3.54-35.52-.12,11.61-.41,23.2-.24,34.8-.68,3.55-1.3,7.11-2.07,10.63"/><path class="cls-8" d="m663.75,324.77c.47,4.33,1.17,8.65,1.36,13,.28,6.58-2.04,12.56-5.28,18.14-1.74,3-3.86,5.78-5.91,8.6-5.49,7.55-5.13,15.17-.47,22.92.81,1.34,1.48,2.76,2.21,4.14,0,1.76-.01,3.52-.02,5.28-.02,1.13-.04,2.26-.06,3.39-.07.08-.2.17-.18.22.04.17.14.33.21.5l-.04,1.31c0,.46-.02.92-.02,1.38.02.69.04,1.37.06,2.06,0,1.07,0,2.15,0,3.22-3.54,4.49-5.25,9.29-2.55,14.84-.22,2.62-.48,5.23-.67,7.85-.48,6.77-1.07,13.54-1.34,20.31-.56,13.64-.94,27.29-1.38,40.93-.23,7.15-.42,14.3-.63,21.46-.24,7.83-.55,15.65-.68,23.48-.04,2.14-1.17,2.36-2.79,2.36-15.76-.04-31.53-.08-47.29-.11.2-2.22.6-4.44.59-6.67-.17-32.96-.41-65.93-.6-98.89-.05-8.28-.02-16.57-.02-24.85,0-13.85.04-27.7-.04-41.54-.02-3.01-.47-6.01-.72-9.02.3-1.79.6-3.58.91-5.38.55.49,1.27.88,1.61,1.49,3.58,6.35,7.07,12.75,10.65,19.09.64,1.13,1.6,2.09,2.62,3.39,2.17-4.96,3.97-9.27,5.94-13.51,4.73-10.14,9.61-20.21,14.28-30.38,1.99-4.34,3.59-8.86,5.37-13.29,8.3,1.43,16.6,2.85,24.9,4.28Zm-17.04,103.92c.05-.28.21-.81.22-1.35.25-9.42.36-18.84.79-28.24.16-3.43-1.3-4.32-4.34-4.22-8.75.27-17.51.51-26.27.58-2.46.02-2.68,1.19-2.67,3.14.06,8.65.02,17.31.03,25.96,0,4.44,0,4.43,4.51,4.15,1.01-.06,2.02-.02,3.04-.02,8.16,0,16.33,0,24.7,0Z"/><path class="cls-8" d="m659.84,465.03c5.87-3.37,3.16-43.8,7.41-49.24,2.41-3.09,11.58,30.15,12.17,26.48.15-.91.46-1.79.95-3.63,1.45,1.99,2.37,3.17,3.2,4.41,3.94,5.84,7.87,11.68,11.77,17.55.48.72.68,1.62,1.01,2.43-.17.68-.39,1.36-.6,2.04-.62,1.92-1.29,3.85-1.28,5.77.02,7.87-3,15.06-4.45,22.59-2.28,11.87-4.41,23.77-6.52,35.68-.57,3.25-.82,6.55-1.21,9.83-.29.13-.57.25-.86.38-6.53-.01-13.07.1-19.6-.08-4.5-.12-4.77-.5-4.7-4.9.17-11.66.31-23.32.68-34.97.25-8.02.81-16.03,1.36-24.03.17-2.4.87-4.76,1.13-7.15.11-1.02-.3-2.09-.47-3.14Z"/><path class="cls-14" d="m597.47,359.09c.25,3.01.7,6.01.72,9.02.08,13.85.03,27.7.04,41.54,0,8.28-.03,16.57.02,24.85.2,32.96.43,65.93.6,98.89.01,2.22-.38,4.44-.59,6.67-1.84-.05-3.69-.11-5.53-.16.02-2.14.04-4.27.06-6.41.24-25.19.46-50.37.74-75.56.17-15.73.45-31.47.67-47.2.21-15.06.43-30.12.62-45.18.03-2.49-.95-5.16,1.43-7.18.41.24.82.47,1.22.71Z"/><path class="cls-4" d="m70.99,439.4c-.42-2.97-.08-6.34-1.4-8.84-2.87-5.43-4.68-10.61-1.2-16.49,3.63-.21,5.68,1.93,6.02,6.84.12,1.68.09,3.37.12,5.05-.46,3.38-.91,6.76-1.37,10.13.02,1.33.04,2.66.05,3.99-.74-.23-1.48-.46-2.22-.68Z"/><path class="cls-18" d="m322.08,329.3c-1.46,4.49-2.98,8.97-4.32,13.5-.39,1.3-.24,2.76-.35,4.14.22,1.11.44,2.22.65,3.33.89,3.5,1.86,6.98,2.67,10.5,1.08,4.75,2.07,9.45.47,14.4-1.21,3.77-1.71,7.76-2.52,11.66-.42-.2-.84-.4-1.26-.61.31-2.33.37-4.72.98-6.96,1.72-6.32,3.21-12.86.1-18.88-2.92-5.65-2.96-11.6-3.48-17.51-.16-1.82,1.69-3.78,2.51-5.72.9-2.13,1.68-4.31,2.52-6.47.67-.46,1.34-.91,2.02-1.37Z"/><polygon class="cls-25" points="658.26 117.79 680.78 178.81 673.29 234.65 614.63 288.09 572.3 284.06 527.26 222.25 505.26 164.08 533.57 126.57 564.39 108.4 658.26 117.79"/><path class="cls-18" d="m368.87,204.24c-4.31-1.9-9.23-2.66-12.13-7.09-1.79-2.74-2.87-5.28.4-8.71-.5,7.33,1.32,12.36,9.58,11.09.72,1.57,1.44,3.14,2.16,4.71Z"/><path class="cls-18" d="m366.11,346.87c.67-1.12,1.34-2.23,2.01-3.35,3.01,1.07,6.03,2.15,9.04,3.22-.13.46-.26.92-.39,1.38-3.58-.11-7.23.91-10.66-1.25Z"/><path class="cls-18" d="m336.2,361.7c-.09-.84-.42-1.73-.24-2.5,1.02-4.38,2.15-8.73,3.19-12.86,1.62,1.55,1.54,4.69.43,7.75-.76,2.1-.39,4.61-.52,6.93-.95.23-1.91.46-2.86.69Z"/><path class="cls-2" d="m50.05,405.69c.45,1.76.89,3.53,1.34,5.29-1.48-.12-2.1.38-2.06,2.03.04,1.59-.42,3.2-.66,4.79,0-2.21,0-4.42,0-7.07-2.49.91-4.7,1.72-6.92,2.53-.22-.45-.43-.9-.65-1.35,2.06-1.18,4.12-2.36,6.18-3.54.49.42.99.83,1.34,1.13.55-1.48.99-2.64,1.42-3.81Z"/><path class="cls-2" d="m131.28,9.68c-1.7,1.66-3.39,3.31-5.09,4.97-.24-.18-.49-.36-.73-.54.56-1.92,1.13-3.84,1.69-5.75,1.38.44,2.75.88,4.13,1.33Z"/><path class="cls-18" d="m334.9,401.03c.46-.9.92-1.79,1.37-2.69,1.4,1.77,2.79,3.55,4.19,5.33-.22.16-.43.32-.65.49-1.64-1.04-3.27-2.08-4.91-3.13Z"/><path class="cls-2" d="m338.37,393.55c-.01-1.12-.03-2.24-.04-3.36,1.59.23,3.19.45,4.78.68.06.38.12.75.18,1.13-1.64.52-3.28,1.03-4.92,1.55Z"/><path class="cls-21" d="m552.24,19.93c-.47,1.3-.93,2.61-1.4,3.91-.46-.03-.93-.06-1.39-.09,0-1.02,0-2.04,0-3.05.93-.26,1.87-.51,2.8-.77Z"/><path class="cls-2" d="m125.85,8.4c-2.71.18-5.43.35-8.14.53,2.71-.18,5.43-.35,8.14-.53Z"/><path class="cls-2" d="m132.63,9c-.44.22-.88.45-1.32.67.44-.22.88-.45,1.32-.67Z"/><path class="cls-18" d="m369.44,204.95c-.21-.25-.41-.5-.62-.75.21.25.41.5.62.75Z"/><path class="cls-14" d="m681.44,539.31c.29-.13.57-.25.86-.38-.29.13-.57.25-.86.38Z"/><path class="cls-25" d="m695.41,167.82c4.58,9.46,8.67,18.99,6,29.7-.19.78-.11,1.61-.16,2.42-.07,1.17-.15,2.33-.22,3.5-.03.47-.05.95-.08,1.42-.8,3.3-1.95,6.57-2.33,9.91-1.08,9.49-3.52,18.65-7.9,27.25-6.7,13.14-16.5,24.17-28.68,33.3-11.4,8.55-23.55,16.11-36.8,22.08-1.06.48-1.87,1.42-2.8,2.14-1.14.03-2.28.06-3.42.09-3.2.69-6.36,1.76-9.6,1.99-4.21.3-8.5.22-12.69-.24-4.22-.46-8.36-1.59-12.54-2.43-10.23-4.81-23.64-8.72-32.93-15.15-9.82-6.79-16.65-15.65-24-25-7-16-18.38-27.67-22.02-44.62-1.2-8.61-2.72-17.2-3.51-25.84-.88-9.62-1.26-19.3-1.47-28.95-.04-1.93,1.21-4.24,2.62-5.8,13.38-14.81,25.52-30.24,32.49-48.74,4.11-10.91,9.1-21.54,13.56-32.34,1.55-3.77,5.12-3.8,8.43-4.4,3.73-.68,7.47-1.37,11.25-1.81,6.07-.71,12.16-1.29,18.26-1.79,4.33-.36,8.68-.75,13.01-.71,13.31.14,26.69-.13,39.62,3.56,7.22,2.06,14.7,3.68,21.48,6.66,8.61,3.78,13.49,9.04,12.98,17.92-.59,10.3,1.19,20.39,4.32,30.31,2.07,6.55,3.67,13.23,5.48,19.85-8.56-5.02-18.09-5.53-27.78-4.89-6.5.43-13.01,1.04-19.45,1.94-4.14.58-8.24,1.61-12.22,2.83-2.7.83-3.95,4.86-2.74,7.71,1.35,3.17,3.88,1.54,5.85.92,14.08-4.46,28.46-7,43.42-6.31,5.15.24,10.18.77,14.61,3.49,2.15,4.53,4.29,9.06,6.44,13.59-2.19.27-4.38.53-6.56.8-.56-.23-1.19-.39-1.69-.7-14.56-9.22-29.83-10.65-45.76-3.34-6.3,2.89-10.62,7.79-13.98,13.32-.74,1.22-.66,3.78.25,4.76,1.93,2.08,4.67,3.53,7.07,5.24,2.41,1.29,4.74,2.75,7.24,3.85,10.07,4.44,20.32,5.65,30.78,1.06,4.13-2.31,8.62-4.23,12.31-7.03,4.21-3.2,7.71-7.18,11.52-10.83.78-.22,1.57-.45,2.35-.67Zm-112.67,52.69c.16-1.76.32-3.51.5-5.56-2.66,2.46-2.66,2.57-.55,5.6,1.02.94,1.86,2.38,3.08,2.73,4.98,1.46,10.07,2.58,15.12,3.83.15-.27.29-.55.44-.82-2.45-.95-4.85-2.04-7.36-2.8-3.7-1.12-7.48-1.99-11.23-2.97Zm-12.38-34.84c4.19-2.34,8.37-4.67,12.56-7.01,1.12-.94,2.1-2.09,3.38-2.77,2.47-1.3,2.24-2.92,1.06-4.77-5.53-8.65-13.37-14.76-24.06-16.96-14.03-2.88-26.86.52-38.75,7.55-.32.19-.91.39-.92.59-.07,3.97-3.53,3.89-7.82,4.57,6.84,5.69,12.4,11.3,19.01,15.52,6.02,3.84,12.91,6.98,20.86,5.95,5.2.53,10.13-.21,14.69-2.67Zm-2.36,62.94c-2.44-.21-4.88-.41-7.32-.62l-.26.92c2.28.58,4.55,1.17,6.83,1.75.9,1.17,1.52,2.8,2.74,3.42,4.1,2.07,8.37,3.86,12.65,5.59,11.07,4.49,22.71,5.84,34.42,3.4,6.74-1.41,13.18-4.3,19.53-6.98,2.31-.97,5.77-2.01,4.8-5.72.65-.55,1.31-1.09,2.24-1.87-1.29-.13-2.12-.22-2.95-.3-.9-.9-1.63-2.11-2.73-2.63-1.31-.62-2.94-.64-4.43-.93-5.83-1.15-11.48-2.61-17.69-1.46-5.12.95-10.66,1.43-15.77.69-7.44-1.07-14.59-1.7-21.83.7-1.99.66-4.39.32-6.35,1.02-1.49.53-2.59,1.99-3.87,3.03Zm-49.95-100.95c.27.27.54.54.82.81,1.2-.31,2.38-.73,3.6-.92,6.89-1.1,13.8-3.06,20.67-2.97,8.31.1,16.65,1.7,24.87,3.14,5.01.88,9.82,2.69,14.73,4.06,3.35.93,4.49.17,4.68-3.07.33-5.67-.29-6.69-6.4-8.3-3.42-.9-6.99-1.4-10.53-1.78-5.95-.64-12.03-.57-17.88-1.62-12.4-2.23-23.1.48-32.43,8.18-.84.69-1.43,1.64-2.13,2.47Zm99.97,49.59c.38-.05.75-.11,1.13-.16-1.31-8.69-2.63-17.37-3.94-26.06-.54.07-1.07.15-1.61.22.87,8.75.67,17.66,4.42,25.99Zm8.9,17.14c-.33,1.17-.78,2.32-.95,3.51-.39,2.74-1.44,4.75-4.93,4.86-1.77.06-3.53.49-5.3.63-4.62.35-8.62,2.17-11.48,5.61,1.19-.25,2.23-.83,3.36-1.16,3.6-1.05,7.23-2.83,10.85-2.84,7.9-.04,8.48-3.7,8.45-10.6Z"/><path class="cls-28" d="m611.39,298.08c.81-.69,1.53-1.58,2.45-2.03,18.41-4.25,25.42-11.15,35.41-19.25,10.68-8.66,16.11-20.81,21.98-33.27,3.84-8.15,5.98-16.84,6.93-25.84.33-3.17,1.34-6.27,2.04-9.4.02-.45.05-.9.07-1.35.06-1.11.13-2.21.19-3.32.72,0,1.44.02,2.16.03.08,4.02.15,8.03.23,12.05.62,7.43,1.57,14.86,1.75,22.3.13,5.19-.81,10.41-1.24,15.62-.21,2.55-.84,5.19-.43,7.65.52,3.15.13,5.87-1.48,8.52-.68,3.61-1.37,7.21-2.05,10.82,0,0,.02-.03.02-.03-.91,4.06-1.82,8.12-2.72,12.18,0,0,0,0,0,0-.68,2.03-1.36,4.07-2.05,6.1,0,0,.03-.03.03-.03-.2.21-.41.42-.61.64-2.27,8.53-4.59,17.06-6.78,25.61-.52,2.02-1.2,3.59-3.56,3.72-8.3-1.42-16.6-2.85-24.9-4.28-.98-.13-1.95-.25-2.93-.4-6.26-.97-12.52-1.95-18.78-2.92-2.85-1.76-2.89-4.7-3.3-7.55-.74-5.19-1.63-10.36-2.46-15.54Zm33.02,4.41c-.38.06-.75.13-1.13.19-1.89,6.89,1.66,12.85,3.83,19.05-.9-6.41-1.8-12.83-2.7-19.24Z"/><path class="cls-22" d="m502.26,184.79c1.81,6.22,4.04,22.35,9,36,5.56,15.31,13.89,28.19,16,34,6.9,9.4,13.29,16.88,22.51,23.71,8.73,6.46,18.48,10.98,28.09,15.81-.18.48-.36.95-.54,1.43-.94,4.36-2.29,8.69-2.68,13.11-.28,3.19-1.62,5.2-4.01,6.91-6.41,3.83-13.22,6.51-20.78,7.04l-2.89-.91c-.58-.48-1.17-.95-1.68-1.5-1.82-1.95-3.93-3.74-5.3-5.97-2.25-3.64-4.18-6.96-9.03-8.21-5.48-1.41-10.63-4.1-15.92-6.23-6.24-6.52-10.89-13.9-12.6-22.85-1.39-3.8-2.53-7.71-4.24-11.36-2.64-5.63-5.66-11.09-8.53-16.62-.94-1.87-1.73-3.83-2.85-5.6-1.47-2.34-2.16-4.66-.97-7.28,0,0-.03.03-.03.03,1.2-1.22,2.4-2.43,3.61-3.65,2.59-3.82,5.53-7.46,7.65-11.52.44-.85.85-1.72,1.22-2.61,3.94.22.01-33.96,3.95-33.74Z"/><path class="cls-17" d="m666.6,150.13c-3.89-2.58-8.29-3.08-12.81-3.31-13.11-.65-25.72,1.76-38.06,5.99-1.73.59-3.94,2.14-5.13-.87-1.06-2.7.03-6.52,2.4-7.31,3.49-1.16,7.08-2.14,10.71-2.68,5.65-.85,11.35-1.44,17.05-1.84,8.5-.6,16.85-.12,24.35,4.64,2.71,1.19,2.17,3.27,1.48,5.38Z"/><path class="cls-22" d="m506.75,213.09c-1.39,3.81-2.42,7.8-4.27,11.37-1.98,3.83-4.73,7.27-7.14,10.87-.23-.23-.47-.46-.7-.68,2.31-3.93,4.7-7.81,6.91-11.8,1.18-2.12,1.99-4.44,3.09-6.61.57-1.12,1.4-2.11,2.11-3.16Z"/><path class="cls-21" d="m507.49,277.31c1.59,8.45,5.93,15.41,11.75,21.56-2.33-2.03-5.25-3.67-6.85-6.16-2.49-3.87-4.17-8.27-5.95-12.55-.29-.69.66-1.89,1.04-2.85Z"/><path class="cls-24" d="m675.35,169.14c-.69.21-1.37.43-2.06.64-.59-.43-1.15-1.18-1.77-1.25-2.97-.3-4.58-1.89-5.02-4.77,1.92-.25,3.84-.5,5.75-.76,1.03,2.04,2.07,4.09,3.1,6.13Z"/><path class="cls-21" d="m683.26,214.79c.16,8.56-.31,1.27-.62-15.16.3-1.74.6-3.49.9-5.24.37.03.75.07,1.12.1,0,5.15.74,13.14.6,18.29-.02.59-1.4,1.42-2,2Z"/><path class="cls-26" d="m552.76,64.25c-2.13-6.33-4.27-12.66-6.4-18.99.38-.14.76-.27,1.14-.41,2.14,6.33,4.27,12.65,6.41,18.98-.38.14-.76.28-1.15.42Z"/><path class="cls-26" d="m549.44,23.75c.46.03.93.06,1.39.09-1.62,5.35-3.23,10.69-4.85,16.04-.41-.11-.82-.23-1.23-.34,1.36-5,2.72-10,4.08-15,.2-.24.4-.49.6-.73,0,0,0-.05,0-.05Z"/><path class="cls-21" d="m492.01,238.75c-1.11,2.48-.47,4.67.91,6.87,1.04,1.66,1.78,3.51,2.66,5.28-2.06-2.93-4.27-5.77-6.02-8.88-.27-.48,1.59-2.16,2.46-3.28Z"/><path class="cls-21" d="m679.41,276.59c.68-3.61,1.37-7.21,2.05-10.82,1.67,4.05.05,7.48-2.05,10.82Z"/><path class="cls-21" d="m676.71,288.75c.91-4.06,1.82-8.12,2.72-12.18.01,4.27.19,8.57-2.72,12.18Z"/><path class="cls-11" d="m655.57,402.28c.01-.44.03-.88.04-1.31,0-.24-.02-.48-.03-.72.02-1.13.04-2.26.06-3.39.47.02.93.04,1.4.06-.01,2.69-.02,5.38-.03,8.07-.47.25-.93.49-1.4.74-.02-.69-.04-1.37-.06-2.06,0-.46.02-.92.02-1.38Z"/><path class="cls-26" d="m657.04,396.91c-.47-.02-.93-.04-1.4-.06,0-1.76.01-3.52.02-5.28.46,1.78.92,3.56,1.38,5.34Z"/><path class="cls-21" d="m674.67,294.84c.68-2.03,1.36-4.07,2.05-6.1-.14,2.21.79,4.78-2.05,6.1Z"/><path class="cls-21" d="m494.65,234.65c.23.23.47.46.7.68-1.12,1.15-2.24,2.29-3.37,3.44.89-1.37,1.78-2.75,2.67-4.12Z"/><path class="cls-26" d="m655.61,405.72c.47-.25.93-.49,1.4-.74-.47,1.32-.93,2.64-1.4,3.96,0-1.08,0-2.15,0-3.23Z"/><path class="cls-21" d="m674.09,295.45c.2-.21.41-.42.61-.64-.2.21-.41.42-.61.64Z"/><path class="cls-21" d="m549.44,23.79c-.2.24-.4.49-.6.73.2-.24.4-.49.6-.73Z"/><path class="cls-10" d="m108.23,259.07c-.04-2.87-.71-5.9,0-8.57,2.19-8.35,2.05-16.02-3.23-23.43-3.18-4.47-3.69-9.77-3.15-15.46.64-6.8,1.57-13.79-2.35-20.37-1.83-3.07-1.52-7.11.7-10.29,3.28-4.68,4.24-9.25,1.9-14.83-1.52-3.63-1.55-7.88-2.25-11.86.05-.9.1-1.79.15-2.69.95-.96,1.89-1.92,2.85-2.86,4.45-4.34,7.6-9.24,6.71-15.81-.98-7.29,2.38-11.8,9.04-14.16,4.96-1.76,7.93-5.72,9.9-10.09,1.16-2.56.63-5.91.69-8.92.07-3.29.76-6.38,3.63-8.21,1.71-1.09,3.88-1.78,5.91-2.01,6.4-.72,11.29-3.3,14.14-9.39,1.41-3,9.37-5.03,13.92-3.92,1.53.37,3.06.76,4.56,1.24,11.51,3.69,22.81,3.43,34.34-.5,3.76-1.28,8.37-.27,12.57,0,.99.07,2.09,1.27,2.8,2.21,1.35,1.79,2.49,3.75,3.65,5.67,1.82,3.02,4.21,5.22,7.78,5.99,1.19.26,2.3.89,3.48,1.26,5.76,1.82,8.03,6.05,8.3,11.76.36,7.49,3.31,13.03,11.04,15.48,5,1.59,5.19,2.33,5.21,7.63,0,.34.04.68,0,1.01-1.21,8.9,1.21,15.81,9.93,19.96,4.61,2.19,3.01,6.83,2.7,10.55-.95,11.36-2.97,22.63,2.99,33.53,1.54,2.81.95,6.96.75,10.46-.12,2.03-1.14,4.15-2.22,5.95-6,10.04-6.75,20.5-2.88,31.41.18.52.22,1.09.36,1.78-4.62,1.51-4.21,5.99-5.37,9.4-.84,2.47-.62,5.31-.88,7.98-.42.92-.84,1.85-1.26,2.77-2.57,3.63-5.27,7.18-7.69,10.92-9.74,15.04-23.76,24.9-39.41,32.84-2.88,1.46-5.77,2.88-9.13,4.56.9,3.14,1.87,6.49,2.84,9.85.46,1.53.92,3.05,1.39,4.58-1.82,3.58-3.58,7.2-5.49,10.74-3.93,7.29-8.06,14.48-11.82,21.86-.88,1.73-.61,4.04-.87,6.09-.56,1.06-1.12,2.13-1.67,3.19-1.09-.21-2.19-.42-3.28-.63-.73-1.31-1.46-2.61-2.19-3.92-.51-2.67-.38-5.69-1.65-7.93-3.52-6.22-7.82-11.99-11.42-18.17-2.45-4.19-4.25-8.77-6.34-13.17.73-2.57,1.68-5.09,2.16-7.7.96-5.16.89-5.8-3.83-8.03-19.51-9.23-36.12-22.22-50.64-38.02-.13-.14-.4-.17-.6-.25-2.25-3.16-4.51-6.31-6.76-9.47Zm44.08,1.14h.12c1.75,1.54,3.27,3.5,5.28,4.53,12.61,6.46,25.8,10.77,40.16,7.69,8.96-1.92,17.36-5.37,23.5-12.73.9-.6,1.81-1.21,2.71-1.81-.45-.44-.9-.88-1.36-1.32-.3,0-.6.01-.89.02-1.75.12-3.5.24-5.25.36-1.88-.57-3.72-1.39-5.65-1.66-5.14-.74-10.26-3-15.52-1.02-5.05,1.9-10.12,2.01-15.14.41-8.5-2.7-16.21.96-24.18,2.62h-7.03c-.09.23-.18.47-.28.7.9.57,1.8,1.13,2.69,1.7.27.17.55.34.82.51Zm97.31-68.8c1.1-.69,2.33-1.24,3.27-2.1,4.12-3.79,8.2-7.61,12.14-11.57.52-.52.63-2.38.19-2.78-1.71-1.53-3.73-2.72-5.64-4.02-7.85-5.36-16.28-8.35-26.05-8-12.65.45-21.38,6.55-27.33,17.2-.52.93-.2,3.28.54,3.79,4.49,3.1,9.22,5.85,13.86,8.72,7.48,3.61,15.09,5.05,23.01,1.37,1.57-.63,3.14-1.27,4.71-1.9.43-.23.85-.46,1.28-.69Zm-131.96-21.64c-3.46-.41-5.51,1.69-7.36,4.13.2.9.13,1.99.64,2.66,4.1,5.44,8.79,10.27,14.87,13.55,4.54,3.89,10.31,4.46,15.81,5.27,2.45.36,5.18-1.11,7.78-1.75,1.2-.52,2.4-1.04,3.61-1.56,4.06.82,6.94-1.71,10.07-3.53.17-.16.34-.32.51-.47,1.51-1.09,3.07-2.12,4.52-3.29,2.22-1.8,3.16-3.93,1.48-6.65-6.07-9.88-14.79-15.1-26.46-15.84-9.5-.6-17.75,2.37-25.47,7.49Zm145.65-11.62c.34-.19.67-.38,1.01-.57-.93-1.33-1.62-2.93-2.82-3.94-5.85-4.9-12.83-6.83-20.31-6.69-5.59.11-11.2.59-16.73,1.39-5.42.78-10.84,1.89-16.1,3.41-3.4.98-3.99,3.67-2.79,7.05,1.31,3.69,3.81,2.04,5.81,1.34,11.36-4,22.95-6.24,35.07-5.95,5.99.14,11.48,1.62,16.85,3.97Zm-152.88-.77c1.24.13,1.62.28,1.88.17,12.45-5.25,25.16-3.65,37.83-1.27,5.17.97,10.21,2.57,15.32,3.87,3.33.85,4.32.08,4.38-3.31.06-3.73-1.42-5.3-6.57-6.59-11.99-3.01-24.25-3.19-36.45-2.59-6.45.32-11.37,4.71-16.39,9.72Zm58.06,64.05c-1.53,6.17,1.07,9.82,6.56,9.89,3.29.04,6.22.81,8.58,3.18,2.41,2.41,5.11,2.5,7.47.3,2.73-2.54,5.8-2.91,9.3-2.87,6.4.07,9.1-4.36,5.8-10.69-.26,2.57-.51,5.14-.81,8.11-2.41.21-4.9.12-7.22.71-2.51.64-5.28,1.41-7.16,3.03-2.42,2.07-4.07,2.17-6.35.14-2.64-2.36-5.56-3.94-9.45-3.42-2.19.29-4.51-.3-5.17-3.15-.36-1.54-.9-3.03-1.55-5.21Zm31.13-20.83c.52-.05,1.05-.09,1.57-.14-.84-6.76-1.67-13.51-2.51-20.27-.45.05-.89.1-1.34.15.76,6.75,1.52,13.51,2.27,20.26Z"/><path class="cls-14" d="m194.46,363.17c.26-2.04-.01-4.36.87-6.09,3.76-7.38,7.89-14.56,11.82-21.86,1.91-3.54,3.66-7.16,5.49-10.74.84.27,1.67.54,2.51.8,0,0,0-.01,0-.01.25.44.49.88.74,1.32,0,0-.02-.02-.02-.02.23.23.46.45.69.68,0,0,0-.01,0-.01.71.65,1.42,1.3,2.14,1.95.15.01.31.04.46.07,2.63,2.98,6.27,2.42,9.65,2.77.15.01.3,0,.45-.03.52.45,1.04.89,1.56,1.34-1.04,3.18-1.81,6.47-3.15,9.52-5.95,13.45-12.05,26.82-18.12,40.22-.36.79-.89,1.49-1.69,2.8-.92-1.31-1.68-2.17-2.19-3.16-3.16-6.07-6.23-12.18-9.42-18.24-.31-.58-1.16-.88-1.76-1.31Z"/><path class="cls-14" d="m240.81,436.11c-10.05,0-19.62.07-29.17-.12-.88-.02-2.45-1.7-2.46-2.63-.18-9.33-.06-18.67-.12-28.01-.01-2.02.9-2.43,2.69-2.42,9.13.06,18.25.06,27.38,0,2.08-.01,3.22.58,3.11,2.85-.48,9.94-.93,19.89-1.41,30.32Z"/><path class="cls-13" d="m254.83,378.03c-.17,5.91-.31,11.83-.53,17.74-.02.62-.46,1.23-.7,1.84-.81-.23-1.62-.45-2.43-.68.4-3.94.73-7.89,1.24-11.81.36-2.81.97-5.6,1.47-8.39.32.43.64.87.95,1.3Z"/><path class="cls-27" d="m230.8,333.35c-.52-.45-1.04-.89-1.56-1.34,7.68.22,15.37.43,23.05.69.51.02,1.01.37,1.52.57-.26.2-.52.59-.77.58-7.41-.14-14.82-.33-22.24-.51Z"/><path class="cls-4" d="m251.18,396.93c.81.23,1.62.45,2.43.68,0,.66,0,1.31,0,1.97-.08.07-.25.16-.24.2.05.18.15.35.23.52-.22,4.05-.44,8.1-.66,12.14-1.03.22-2.05.43-3.08.65.44-5.38.88-10.77,1.32-16.15Z"/><path class="cls-16" d="m273.39,412.44c-.62-2.82-3.05-5.36-1.35-8.53.29-.53.7-1,1.61-1.54-1.84,4.18,1.28,6.82,2.49,10.02-.91.02-1.83.03-2.74.05Z"/><path class="cls-26" d="m189.5,365.73c1.09.21,2.19.42,3.28.63.03,1.17.05,2.33.08,3.5-.91,0-1.82,0-2.73,0-.21-1.38-.42-2.75-.63-4.13Z"/><path class="cls-11" d="m254.83,378.03c-.32-.43-.64-.87-.95-1.3.31-1.47.62-2.94.94-4.42.34.07.68.14,1.02.21-.33,1.83-.67,3.67-1,5.5Z"/><path class="cls-13" d="m253.6,400.29c-.08-.17-.18-.34-.23-.52-.01-.04.15-.13.24-.2v.72Z"/><path class="cls-13" d="m127.89,407.02c-.61.19-1.22.39-1.83.58-.72-4.12-1.5-8.22-2.11-12.35-.27-1.78-.65-3.81,1.89-4.51.27.47.54.94.8,1.41.03.68.06,1.36.08,2.04.01.45.02.9.04,1.35.03.44.05.88.08,1.32,0,.25-.01.49-.02.74.21,2.4.41,4.81.62,7.21.09.31.18.62.27.92.06.43.12.85.17,1.28Z"/><path class="cls-27" d="m109.46,421.32c-3.07-4.19-3.44-7.55-1.21-10.9,0,0-.02-.01-.02-.01-.83,4.22.8,7.68,3.39,10.83-.72.03-1.44.05-2.16.08Z"/><path class="cls-27" d="m91.98,415.07c.68-2.23,1.36-4.46,2.03-6.69.44.01.89.03,1.33.04-.66,3.38-1.31,6.75-1.97,10.13-.46-1.16-.93-2.32-1.39-3.48Z"/><path class="cls-14" d="m126.65,392.15c-.27-.47-.54-.94-.8-1.41-.02-.64-.04-1.27-.06-1.91-.66-1.52-1.31-3.05-2.16-5.02.71.1,1.47.21,2.24.32.26,2.67.52,5.34.78,8.02Z"/><path class="cls-27" d="m93.37,419.09c.21.26.42.51.63.77-.21-.26-.42-.51-.63-.77Z"/><path class="cls-11" d="m127.75,426.56c-.14.26-.29.52-.43.78.14-.26.29-.52.43-.78Z"/><path class="cls-8" d="m126.65,392.15c-.26-2.67-.52-5.35-.78-8.02-.6-3.27-1.07-6.58-1.85-9.82-1.22-5.07-2.64-9.96-1.78-15.42.55-3.46-.84-7.2-1.05-10.83-.17-3.04.02-6.11.25-9.15.13-1.63.68-3.23,1.04-4.85.22-.02.44-.03.66-.04,1.36-.67,2.68-1.8,4.09-1.94,6.52-.63,13.07-.99,19.61-1.44,9.26,15.82,17.72,32.04,24.42,49.14.8,2.03,2.26,3.81,3.41,5.7,1.16-1.68,1.29-3.05,1.87-4.19,3.16-6.27,6.43-12.49,9.7-18.71.19-.35.7-.53,1.06-.79.73,1.31,1.46,2.61,2.19,3.92.21,1.38.42,2.75.63,4.13,0,5.4.05,10.81-.01,16.21-.21,17.88-.48,35.76-.69,53.64-.25,21.6-.43,43.2-.7,64.79-.15,11.92-.49,23.83-.62,35.74-.03,2.52-.92,3.32-3.39,3.3-8.79-.09-17.59-.01-26.38,0-9.01.21-18.02.43-27.03.64-.13-3.84-.28-7.68-.38-11.52-.02-.65.3-1.3.31-1.95.27-18.95.98-37.91.61-56.84-.22-11.36-2.15-22.7-3.3-34.04-.08-.78-.07-1.57-.1-2.36.15-3.59.3-7.19.45-10.78-.34-6.56-.68-13.12-1.02-19.67-.06-.43-.12-.85-.17-1.28-.09-.31-.18-.62-.27-.92-.21-2.4-.41-4.81-.62-7.21.06-.07.19-.16.18-.22-.02-.18-.11-.35-.16-.52-.03-.44-.05-.88-.08-1.32-.01-.45-.02-.9-.04-1.35-.03-.68-.06-1.36-.08-2.04Z"/><path class="cls-14" d="m187.32,361.81c-.36.26-.88.44-1.06.79-3.27,6.22-6.53,12.44-9.7,18.71-.58,1.14-.71,2.51-1.87,4.19-1.15-1.89-2.62-3.67-3.41-5.7-6.7-17.1-15.16-33.32-24.42-49.14,1.53-.46,3.04-1.08,4.6-1.34,5.18-.85,10.83-.39,14.42-5.43.17-.02.33-.04.5-.05.22-.21.45-.42.67-.63.29-.22.57-.44.86-.67,2.09,4.4,3.89,8.97,6.34,13.17,3.61,6.17,7.9,11.95,11.42,18.17,1.27,2.24,1.14,5.26,1.65,7.93Z"/><path class="cls-18" d="m74.43,372.6c1.87-4.08-1.53-6.87-2.49-10.26-.9-3.18-1.85-6.41-2.12-9.67-.12-1.46,1.08-3.32,2.19-4.52,2.92-3.12,3.49-6.96,1-12.03-1.06-2.16-1.61-4.01-.35-6.32.59-1.07.21-2.64.4-3.96.15-1.04.52-2.06.79-3.09l1.21.15c0,1.6-.1,3.21.02,4.8.29,3.94.4,7.93,1.12,11.79.61,3.3-.24,6.12-2.02,8.54-3.91,5.33-2.91,10.04.41,15.28,1.63,2.57,1.71,6.12,2.49,9.22-.89.02-1.77.04-2.66.06Z"/><path class="cls-18" d="m30.97,363.23c.85-.65,1.12-1.04,1.35-1.01,4.99.57,6.12-2.06,5.65-6.4-.1-.88,1-1.88,1.55-2.83.33.13.65.27.98.4-.22,1.34-.23,2.75-.7,3.99-.97,2.56-.42,4.75.94,6.99,3.18,5.23,2.64,7.73-1.68,12.3-.85.9-.7,3-.55,4.5.27,2.74,1.16,5.44,1.28,8.17.08,1.85-.71,3.76-3.51,3.37,2.18-3.49,2.29-6.88.42-10.25-1.51-2.72-.77-4.84,1.21-6.97,1.09-1.17,2.36-2.61,2.57-4.07.76-5.19-1.22-7.27-6.64-7.64-.74-.05-1.46-.27-2.86-.54Z"/><path class="cls-27" d="m105.57,356.37c.45,1.36.6,2.93,1.4,4.03,3.19,4.43,3.25,9.11,1.63,14.05-1.19,3.61-.82,6.86,1.59,10.02,2.04,2.67,2.61,5.56,1.23,9.1-1.03,2.64-.88,5.87-.72,8.81.17,3.09.76,6.07-2.47,8.02,0,0,.02.01.02.01.65-5.96,1.52-11.91,1.83-17.88.13-2.4-.52-5.09-1.62-7.24-2.24-4.38-2.62-8.45-1.02-13.23.85-2.53-.11-5.78-.66-8.63-.33-1.71-1.57-3.22-2.11-4.92-.19-.59.52-1.46.81-2.21l.08.07Z"/><path class="cls-2" d="m73.16,436.1c.46-3.38.91-6.76,1.37-10.13.29.82.41,1.78.93,2.42.4.49,1.32.8,1.98.77.36-.02,1.01-.96.97-1.42-.47-4.85-1.02-9.69-1.63-14.52-.23-1.85-.67-3.67-1.02-5.5.9.68,1.8,1.35,2.7,2.03.41,1.48.75,2.98,1.24,4.43.96,2.85,1.78,5.6.71,8.7-.6,1.72-.31,3.73-.61,5.58-.63,3.88-3.54,5.87-6.63,7.66Z"/><path class="cls-18" d="m278.11,299.61c-.86,1.39-1.99,2.7-2.53,4.21-.66,1.86-1.16,3.89-1.13,5.84.04,2.85.81,5.69.83,8.54,0,1.1-1.01,2.36-1.85,3.27-1.05,1.13-2.55,1.85-3.59,2.99-1.01,1.11-1.68,2.53-3.14,3.65.42-1.17.63-2.49,1.3-3.5,1.4-2.12,3.72-3.88,4.41-6.16.8-2.67,1.14-6.11.11-8.55-1.44-3.43-1.05-5.64,1.5-8.01,1.1-1.03,1.85-2.44,2.76-3.68.44.47.88.93,1.32,1.4Z"/><path class="cls-16" d="m264.63,261.75c.42-.92.84-1.85,1.26-2.77.69.76,2.01,1.56,1.96,2.27-.4,5.71-.04,11.47-3.95,16.57-3.72,4.86-1.88,10.51-.24,15.74,1.01,3.21,1.4,6.09-1.11,8.73l-.02-.02c-.61-6.22-1.56-12.43-1.68-18.65-.05-2.52,1.31-5.32,2.72-7.56,2.22-3.54,3.07-10.99,1.05-14.3Z"/><path class="cls-8" d="m165.88,323.89c-3.59,5.05-9.24,4.58-14.42,5.43-1.56.26-3.07.88-4.6,1.34-6.54.45-13.09.81-19.61,1.44-1.41.14-2.73,1.26-4.1,1.94-.54-2.81,2.14-2.33,3.39-3.32,13.14-2.11,26.88-.77,39.33-6.83Z"/><path class="cls-18" d="m56.81,388.83c-2.62-3.81-2.48-6.74.52-10.97,3-4.23,3.08-9.44.31-13.65-.48-.74-.62-1.7-.92-2.56.38-.2.77-.4,1.15-.6.68,1.12,1.31,2.26,2.04,3.34,3.13,4.67,2.76,9.46-.3,13.78-2.4,3.39-3.32,6.69-2.08,10.61-.24.02-.48.03-.72.05Z"/><path class="cls-2" d="m74.43,372.6c.89-.02,1.77-.04,2.66-.06-1.22,3.2-2.82,6.32-3.55,9.62-.66,2.99-.37,6.19-.51,9.3-.67,0-1.34,0-2.02,0-1.16-4.13-1.04-8,1.26-11.89,1.21-2.04,1.47-4.64,2.16-6.98Z"/><path class="cls-2" d="m350.49,302.28c-1.63-1.52-1.77-3.51-.13-4.65,4.15-2.89,6.8-6.61,7.94-11.5.14-.59.66-1.08,1.29-2.07,1.19,5.04-.46,8.56-3.56,11.77-1.77,1.84-4.63,3.11-4.17,6.44-.46,0-.91.01-1.37.02Z"/><path class="cls-16" d="m21.55,304.92c.03,4.08-.29,8.2.23,12.21.26,1.99,2,3.83,3.21,5.65,2.34,3.52,1.4,6.49-1.35,9.24-.45,0-.9-.01-1.35-.02,1.25-2.63,3.25-5.11,1.45-8.29-.87-1.53-2.18-3.04-2.39-4.67-.6-4.63-.74-9.32-1.07-13.99.42-.04.84-.09,1.26-.13Z"/><path class="cls-16" d="m119.08,299.56c-5.31-2.41-8.09-7.54-7.38-14.41.42-4.07,1.36-8.09,2.07-12.13.3.01.61.02.91.03,0,.95.11,1.92-.02,2.85-.52,3.64-1.18,7.26-1.68,10.9-.53,3.88.96,6.97,3.83,9.57.94.85,1.51,2.12,2.26,3.19,0,0,.01-.01.01-.01Z"/><path class="cls-18" d="m347.82,161.01c-.39-3.75-.49-7.57-1.26-11.24-.84-3.99-2.3-7.85-3.49-11.77-.15-.49-.32-.97-.59-1.8,4.2,3.2,6.73,13.05,6.68,24.83-.45,0-.89-.01-1.34-.02Z"/><path class="cls-16" d="m289.86,410.51c1.38-1.77,2.49-3.87,4.19-5.24,4.42-3.54,6.85-7.47,4.71-13.33-.59-1.62-.25-3.59-.08-5.39,4.24,8.3,1.59,16.12-8.07,24.61-.25-.22-.5-.43-.76-.65Z"/><path class="cls-18" d="m355.34,165.67c1,.76,2.37,1.31,2.95,2.32,3.65,6.33,2.24,12.69.2,19.02-.39-.02-.79-.05-1.18-.07.24-1.8.01-3.85.8-5.37,2.94-5.69-.13-9.98-2.88-14.43.04-.49.07-.98.11-1.47Z"/><path class="cls-2" d="m318.07,350.27c-.22-1.11-.44-2.22-.65-3.33,3.88-2.04,5.42-5.89,7.38-9.43.45-.81,1.1-1.5,2.08-1.91-.13,6.71-5.05,10.33-8.81,14.67Z"/><path class="cls-16" d="m282.17,385.24c2.63,3.02,3.82,6.55,1.91,10.16-1.82,3.45-4.88,5.85-9.45,7.09,2.87-2.9,6.08-4.89,7.3-7.73,1.16-2.71.25-6.3.25-9.53Z"/><path class="cls-16" d="m89.28,395.53c.19-1.09.09-2.34.61-3.25,2.99-5.2,2.77-10.89,2.79-16.57,0-.91.16-1.82.69-2.7.75,6.01,1.41,12.03-1.09,17.8-.73,1.69-1.97,3.16-2.98,4.73l-.02-.02Z"/><path class="cls-2" d="m333.53,311.77c-.64-.65-1.72-1.21-1.86-1.96-.74-3.79,3.58-9.38,8.32-10.12-.64,1.21-.85,2.33-1.52,2.76-3.16,2.03-4.44,4.87-4.2,8.52-.25.27-.49.53-.74.8Z"/><path class="cls-2" d="m322.08,329.3c-.67.46-1.34.91-2.02,1.37-.27-4.62-3.49-7.79-5.6-11.51-.34-.59-.29-1.41-.06-2.28,4.28,3.1,6.68,7.32,7.68,12.42Z"/><path class="cls-18" d="m71.02,391.47c.67,0,1.34,0,2.02,0,1.1,3.32,2.29,6.62,3.29,9.97.82,2.73,1.43,5.53,2.13,8.29-.9-.68-1.8-1.35-2.7-2.03-.55-2.22-1.01-4.47-1.66-6.66-.96-3.21-2.05-6.39-3.08-9.58Z"/><path class="cls-16" d="m89.31,395.55c0,1.57,0,3.15,0,4.72,0,0,0,0,0,0-1.82-1.94-3.54-4-5.5-5.8-2.73-2.51-2.01-11.24.41-13.5-.09,5.52-4,12.36,5.08,14.56,0,0,.02.02.02.02Z"/><path class="cls-27" d="m105.5,356.3c.92-1.22,1.74-2.54,2.79-3.64,3.21-3.37,3.52-5.31,1.21-9.27-.81-1.38-1.69-2.71-2.2-4.26,3.46,2.17,5.02,5.42,5,9.36-.03,4.4-3.25,6.3-6.72,7.88,0,0-.07-.07-.07-.07Z"/><path class="cls-16" d="m119.07,299.57c2.73,3.11,2.99,6.67,0,11.25-2.13,3.27-3.08,6.58-2.7,10.37h0c-2.08-2.35-2.01-5.17-.54-7.46,2.84-4.42,4.36-8.94,3.25-14.17,0,0-.01,0-.01,0Z"/><path class="cls-18" d="m275.29,292.21c-4.32-3.74-3.02-12.8,2.73-15.02-1.88,4.81-5.86,9.14-1.86,14.19-.29.28-.58.55-.87.82Z"/><path class="cls-16" d="m262.56,302.28c-2.03,1.68-4.04,3.39-6.11,5.03-2.15,1.71-2.43,3.74-1.53,6.25.89,2.48,1.49,5.07,2.22,7.62l-.02.02c-1.34-3.34-3.26-6.6-3.79-10.06-.28-1.8,1.48-4.39,3.05-5.86,1.59-1.5,4.07-2.05,6.16-3.02,0,0,.02.02.02.02Z"/><path class="cls-18" d="m38.46,335.25c1.05,2.57,2.3,5.08,3.08,7.73.62,2.09.82,4.33.9,6.52.03.72-.89,1.47-2.07,2.16,1.88-4.99-1.37-8.66-2.51-12.8.2-1.21.4-2.41.6-3.61Z"/><path class="cls-16" d="m42.32,122.4c.82-5.41,1.72-11.27,2.69-17.66,2.19,5.32,0,16.02-2.69,17.66Z"/><path class="cls-27" d="m122.5,383.53c-5.73-2.76-4.76-7.81-6.1-11.81.44-.2.89-.39,1.33-.59,1.51,3.92,3.02,7.84,4.77,12.4Z"/><path class="cls-16" d="m350.49,302.28c.46,0,.91-.01,1.37-.02,1.99,3.73,4.03,7.43,5.92,11.2.71,1.42,1.06,3.01,1.57,4.52-.3.12-.59.24-.89.36-2.66-5.36-5.32-10.72-7.98-16.07Z"/><path class="cls-14" d="m21.55,304.92c-.42.04-.84.09-1.26.13,2.53-3.96.94-7.43-1.31-10.82.87,0,1.74-.01,2.6-.02,3.5,5.14,3.5,6.35-.04,10.71Z"/><path class="cls-2" d="m56.81,388.83c.24-.02.48-.03.72-.05,2.81,3.57,1.48,9.18-2.74,11.52-.24-.25-.47-.49-.7-.74,1.5-3.43,3.48-6.74,2.72-10.74Z"/><path class="cls-16" d="m108.23,259.07c2.25,3.16,4.51,6.31,6.76,9.47-.7.25-1.99.78-2.03.7-1.65-3.36-3.19-6.77-4.74-10.17Z"/><path class="cls-18" d="m21.59,294.21c-.87,0-1.74.01-2.6.02-2.69-5.4-1.49-10.67.25-16.58.57.81.92,1.1.87,1.27-1.6,5.3-2.46,10.52,1.48,15.28Z"/><path class="cls-16" d="m333.53,311.77c.25-.27.49-.53.74-.8,3.67,5.88,3.17,12.07,1.38,18.35-.47-.26-.93-.52-1.4-.77,2.31-5.7,1.67-11.28-.72-16.78Z"/><path class="cls-16" d="m100,151.56c-.05.9-.1,1.79-.15,2.69-4.26.19-5.07,2.94-5.75,7.55-.17,1.16-.03,2.36-.03,4.33-3.25-5.32.45-13.24,5.93-14.56Z"/><path class="cls-2" d="m334.25,328.56c.47.26.93.52,1.4.77-.29,3.63-.57,7.25-.88,11.08-2.4-2.81-2.58-9.13-.52-11.85Z"/><path class="cls-18" d="m54.09,399.57c.23.25.47.49.7.74-1.58,1.8-3.16,3.59-4.75,5.39-.43,1.16-.87,2.33-1.42,3.81-.35-.3-.84-.71-1.34-1.13-.22-4.85,3.96-6.31,6.8-8.8Z"/><path class="cls-2" d="m22.3,332c.45,0,.9.01,1.35.02-.35,4.3-3.67,6-6.69,7.96-.32-.25-.63-.5-.95-.75,2.1-2.41,4.2-4.82,6.29-7.23Z"/><path class="cls-11" d="m285.5,363.95c1.82,4.82,1.23,7.94-1.84,9.89l-.05-.05c.17-2.43.35-4.85.52-7.28.46-.85.91-1.71,1.37-2.56Z"/><path class="cls-16" d="m43.97,323.9c0-.23-.04-.46,0-.67.57-3.53,1.99-7.13-1.36-10.29,4.44,2.78,5.21,8.04,2,11.01-.21-.02-.42-.04-.63-.05Z"/><path class="cls-16" d="m41.96,290.92c-.7,5.5-1.27,10.07-1.84,14.58-1.6-4.76-1.34-9.4,1.84-14.58Z"/><path class="cls-2" d="m43.97,323.9c.21.01.42.03.63.05-1.6,2.24-3.2,4.47-4.8,6.71-.62-.2-1.24-.41-1.87-.61,2.01-2.05,4.02-4.1,6.04-6.15Z"/><path class="cls-2" d="m355.34,165.67c-.04.49-.07.98-.11,1.47-2.36-1.19-4.78-2.28-7.03-3.66-.46-.28-.27-1.63-.39-2.49.45,0,.89.01,1.34.02,2.06,1.55,4.12,3.1,6.19,4.65Z"/><path class="cls-2" d="m275.29,292.21c.29-.27.58-.55.87-.82,3,2.43,3.93,6.31,1.96,8.23-.44-.47-.88-.93-1.32-1.4-.5-2-1.01-4-1.51-6Z"/><path class="cls-14" d="m37.94,330.05c.62.2,1.24.41,1.87.61-.45,1.53-.9,3.06-1.35,4.59-.2,1.2-.4,2.41-.6,3.61-3.57-2.97-1.61-5.89.08-8.81Z"/><path class="cls-2" d="m285.5,363.95c-.46.85-.91,1.71-1.37,2.56-.98-2.76-1.96-5.52-2.94-8.28.55-.22,1.1-.44,1.65-.67.89,2.13,1.78,4.26,2.66,6.39Z"/><path class="cls-16" d="m95.34,408.42c-.44-.01-.89-.03-1.33-.04-1.57-2.7-3.14-5.4-4.71-8.11,0,0,0,0,0,0,3.87,1.34,4.52,5.07,6.04,8.15Z"/><path class="cls-16" d="m45.98,103.36c2.03-1.7,4.06-3.41,6.1-5.11.31.37.62.74.93,1.11-2.06,1.67-4.12,3.35-6.17,5.02-.28-.34-.57-.68-.85-1.02Z"/><path class="cls-16" d="m283.66,373.84c-.9,3.17-1.81,6.33-2.64,9.24-1.47-2.55-.18-7.73,2.59-9.3,0,0,.05.05.05.05Z"/><path class="cls-16" d="m126.54,330.72c-1.25.98-3.93.51-3.39,3.32-.22,0-.44.02-.66.04-.38-2.13-.76-4.25-1.1-6.19,1.76.97,3.46,1.9,5.15,2.83Z"/><path class="cls-8" d="m228.79,332.04c-3.38-.35-7.02.21-9.65-2.77,3.22.92,6.43,1.85,9.65,2.77Z"/><path class="cls-16" d="m116.36,321.2c1.64,1.47,3.27,2.93,4.91,4.4-.29.28-.58.57-.87.85-1.99-1.17-3.58-2.7-4.03-5.25,0,0,0,0,0,0Z"/><path class="cls-8" d="m215.14,325.29c-.84-.27-1.67-.54-2.51-.8-.46-1.53-.92-3.05-1.39-4.58,1.3,1.8,2.6,3.59,3.9,5.39Z"/><path class="cls-16" d="m257.14,321.19c1.06,1.7,2.12,3.39,3.19,5.09-.52.23-1.03.47-1.55.7-.55-1.92-1.11-3.85-1.66-5.77,0,0,.02-.02.02-.02Z"/><path class="cls-16" d="m262.44,332.03c-.94-.99-1.89-1.99-2.83-2.98.41-.41.83-.82,1.24-1.22,1.01.93,2.02,1.85,3.04,2.78-.48.48-.96.95-1.45,1.43Z"/><path class="cls-16" d="m37.73,125.64c.6-.66,1.21-1.33,1.81-1.99.32.3.64.61.96.91-.6.67-1.21,1.34-1.81,2.01-.32-.31-.64-.62-.96-.93Z"/><path class="cls-8" d="m218.68,329.2c-.71-.65-1.42-1.3-2.14-1.95.71.65,1.42,1.3,2.14,1.95Z"/><path class="cls-8" d="m215.88,326.59c-.25-.44-.49-.88-.74-1.32.25.44.49.88.74,1.32Z"/><path class="cls-8" d="m167.05,323.21c-.22.21-.45.42-.67.63.22-.21.45-.42.67-.63Z"/><path class="cls-8" d="m216.56,327.26c-.23-.23-.46-.45-.69-.68.23.23.46.45.69.68Z"/><path class="cls-25" d="m571.11,313.75c2.23-1.61,3.48-3.52,3.74-6.52.36-4.16,1.62-8.25,2.5-12.37,4.48.89,9.04,1.48,13.4,2.76,5.8,1.7,11.01-.62,16.42-1.67.5-.1.81-1.17,1.21-1.79,1-.03,4.87-.34,5.87-.37.83,5.18-1.15,10.64-.41,15.83.41,2.85.44,5.79,3.3,7.55-3.73,6.51-7.62,12.93-11.14,19.55-2.91,5.48-6.97,10.49-7.63,16.99-.3,1.79-.6,3.58-.91,5.38-.41-.24-.82-.47-1.22-.71-1.19-1.36-2.38-2.71-3.57-4.07-.15-2.17.35-4.67-.56-6.45-2.44-4.73-5.49-9.15-8.3-13.69-4.23-6.81-8.47-13.61-12.7-20.41Z"/><path class="cls-14" d="m571.11,313.75c4.24,6.8,8.48,13.61,12.7,20.41,2.82,4.54,5.86,8.96,8.3,13.69.92,1.77.42,4.28.56,6.45-.82.59-1.97,1.01-2.41,1.81-3.15,5.81-6.13,11.7-9.21,17.55-.55,1.04-1.34,1.97-2.37,3.47-.87-1.35-1.54-2.18-1.98-3.12-6.14-13.08-12.26-26.16-18.35-39.26-2.21-4.76-4.3-9.58-6.45-14.37,6.98-.53,13.27-3.05,19.2-6.63Z"/><path class="cls-14" d="m598.38,353.71c.65-6.5,4.71-11.51,7.63-16.99,3.52-6.62,7.41-13.04,11.14-19.55,6.26.97,12.52,1.95,18.78,2.92.97.15,1.95.27,2.93.4-1.78,4.44-3.38,8.95-5.37,13.29-4.66,10.17-9.55,20.24-14.28,30.38-1.97,4.23-3.77,8.55-5.94,13.51-1.02-1.3-1.98-2.26-2.62-3.39-3.58-6.35-7.08-12.74-10.65-19.09-.34-.61-1.07-1-1.61-1.49Z"/><path class="cls-14" d="m646.71,428.69c-8.37,0-16.54,0-24.7,0-1.01,0-2.03-.05-3.04.02-4.5.28-4.51.29-4.51-4.15,0-8.65.04-17.31-.03-25.96-.01-1.95.21-3.12,2.67-3.14,8.76-.07,17.51-.31,26.27-.58,3.04-.09,4.5.79,4.34,4.22-.43,9.41-.54,18.83-.79,28.24-.01.54-.17,1.07-.22,1.35Z"/><path class="cls-26" d="m655.57,402.28c0,.46-.01.92-.02,1.38,0-.46.01-.92.02-1.38Z"/><path class="cls-26" d="m655.58,400.25c.01.24.02.48.03.72-.08-.17-.17-.33-.21-.5-.01-.06.12-.15.18-.22Z"/><path class="cls-23" d="m519.88,150.02c.62-.79,1.13-1.69,1.87-2.35,8.17-7.3,17.55-9.87,28.42-7.76,5.13,1,10.46.93,15.67,1.54,3.1.36,6.24.84,9.23,1.69,5.36,1.53,5.9,2.49,5.61,7.87-.17,3.07-1.16,3.8-4.1,2.91-4.3-1.3-8.52-3.02-12.91-3.85-7.21-1.37-14.52-2.88-21.8-2.98-6.03-.08-12.09,1.78-18.12,2.82-1.07.18-2.11.58-3.16.88-.24-.26-.48-.51-.71-.77Z"/><path class="cls-7" d="m629.99,249.44c.85,3.52-2.18,4.5-4.21,5.43-5.57,2.54-11.21,5.28-17.12,6.62-10.26,2.32-20.46,1.03-30.17-3.22-3.75-1.65-7.5-3.35-11.09-5.31-1.07-.58-1.62-2.13-2.4-3.24,6.74,1.07,13.45,2.83,20.22,3.07,13.66.47,27.41.86,40.76-3.22,1.34-.04,2.68-.09,4.01-.13Z"/><path class="cls-7" d="m566.66,248.78c1.12-.99,2.08-2.37,3.39-2.88,1.72-.67,3.82-.34,5.57-.97,6.35-2.28,12.61-1.68,19.14-.66,6.44,1,11.22-.14,13.82-.66,5.44-1.09,10.4.3,15.51,1.39,1.31.28,2.74.3,3.88.89.97.5,1.61,1.64,2.39,2.49-1.13.41-2.26.82-3.39,1.22-1.36.1-2.72.21-4.08.31-.24.02-.47.05-.71.07-6.61,1.66-15.11,1.19-25.69,1.32-.45,0-.9-.01-1.35-.02-1.88.19-3.79.71-5.62.5-7.63-.88-15.24-1.99-22.85-3.02Z"/><path class="cls-19" d="m666.49,163.77c.44,2.88,2.04,4.47,5.02,4.77.63.06,1.18.81,1.77,1.25-3.34,3.46-6.41,7.24-10.1,10.27-3.24,2.66-7.17,4.48-10.79,6.67-.46-.41-.91-.82-1.37-1.23.66-.39,1.3-.83,1.99-1.16,5.45-2.63,9.81-6.5,12.96-11.63.49-.8.45-2.6-.13-3.26-4.6-5.35-10.44-8.53-17.54-9.2-.93-1.8-1.83-1.78-2.72.03-1.8.26-3.6.52-5.4.78.16-1.91-1.08-2.38-2.5-2-1.74.47-3.36,1.34-5.03,2.03-5.39-.25-16.15,7.1-17.99,12.44-.2.59.32,1.68.84,2.21,2.02,2.08,4.18,4.02,6.29,6.02l-2.73.32c-2.11-1.62-4.5-3-6.2-4.97-.8-.93-.87-3.36-.22-4.52,2.95-5.24,6.73-9.89,12.26-12.64,13.97-6.93,27.35-5.58,40.11,3.17.44.3.98.45,1.48.67Z"/><path class="cls-19" d="m552.86,188.61c-6.97.98-13.01-2-18.29-5.64-5.79-4-10.66-9.32-16.66-14.72,3.76-.65,6.8-.57,6.86-4.33,0-.19.52-.38.8-.56,10.42-6.67,21.67-9.89,33.97-7.16,9.37,2.08,16.24,7.88,21.09,16.09,1.04,1.75,1.24,3.29-.93,4.52-1.12.64-1.98,1.73-2.96,2.62-.28-.93-.56-1.86-.85-2.78,2.41-1.34,2.49-3.24,1.09-5.29-4.51-6.61-10.87-10.36-18.68-11.78-1.41-.4-2.83-.8-4.24-1.2-2.43.23-4.86.47-7.28.7-1.28.2-2.56.42-3.85.59-6.39.84-11.26,4.49-15.81,8.65-1.54,1.41-1.48,2.82-.08,4.62,6.93,8.9,15.66,14.31,27.19,14.56-.46.37-.92.74-1.39,1.11Z"/><path class="cls-20" d="m596.49,251.3c10.98-.14,17.76.66,25.69-1.32.24-.02.47-.05.71-.07,1.36-.1,2.72-.21,4.08-.31,0,.32,0,.64,0,.96-15.36,4.69-26.46,3.71-40.76,3.22-6.77-.23-13.48-2-20.22-3.07-2-.55-3.99-1.11-5.98-1.66l.23-.88c2.14.2,4.28.39,6.41.59,7.62,1.03,15.22,2.13,22.85,3.02,2.85.33,2.76-.22,5.62-.5.45,0,.9.01,1.35.02Z"/><path class="cls-15" d="m651.03,185.49c.46.41.91.82,1.37,1.23-9.17,4.35-18.15,3.2-26.98-1.01-2.2-1.05-4.24-2.43-6.35-3.66.91-.11,1.82-.22,2.73-.32,1.2.54,2.51.92,3.57,1.66,4.16,2.89,8.78,4.29,13.76,3.92,3.99-.29,7.93-1.2,11.9-1.83Z"/><path class="cls-5" d="m607.51,197.06c-3.29-7.91-3.11-16.35-3.87-24.65.47-.07.94-.14,1.41-.21,1.15,8.24,2.3,16.48,3.45,24.71-.33.05-.66.1-.99.15Z"/><path class="cls-6" d="m614.26,295.79c-.46.62-1.82,2.06-2.4,2.16-3.06.52-10.16,1.91-19-.33-5.05-1.28-10.33-1.87-15.51-2.76.19-.45-.3-.62-.1-1.07,4.24.79,9.11,1.59,13.4,2.03,4.25.44,8.34,1.25,12.6.97,3.73-.26,7.76-.34,11-1Z"/><path class="cls-6" d="m615.31,213.31c.03,6.54-.48,10.01-7.4,10.05-3.18.02-6.36,1.7-9.51,2.7-.99.31-1.91.86-2.95,1.1,2.51-3.26,6.02-4.98,10.07-5.32,1.56-.13,3.09-.54,4.65-.6,3.05-.1,3.97-2.01,4.32-4.61.15-1.13.55-2.22.83-3.32Z"/><path class="cls-15" d="m575.9,176.65c.28.93.56,1.86.85,2.78-3.67,2.22-7.34,4.43-11.01,6.65,0-.68,0-1.37,0-2.05,3.39-2.46,6.78-4.92,10.17-7.38Z"/><path class="cls-18" d="m565.73,184.03c0,.68,0,1.37,0,2.05-4,2.34-8.32,3.04-12.88,2.53.46-.37.93-.74,1.39-1.11,3.15-.89,6.31-1.78,9.46-2.67.23-.06.46-.13.69-.19.45-.2.89-.41,1.34-.61Z"/><path class="cls-6" d="m576.59,219.12c3.28.93,6.6,1.76,9.84,2.82,2.2.72,4.3,1.76,6.45,2.66-.13.26-.25.52-.38.78-4.43-1.18-8.89-2.25-13.25-3.63-1.07-.34-1.81-1.7-2.7-2.59,0,0,.04-.03.04-.03Z"/><path class="cls-5" d="m625.98,250.57c0-.32,0-.64,0-.96,1.13-.41,2.26-.82,3.39-1.23.73.08,1.46.16,2.59.29-.81.74-1.39,1.26-1.96,1.77-1.34.04-2.68.08-4.01.13Z"/><path class="cls-6" d="m576.55,219.16c-1.86-2.87-1.85-2.98.48-5.31-.16,1.94-.3,3.61-.44,5.28,0,0-.04.03-.04.03Z"/><path class="cls-23" d="m680.28,202.92c-.02.45-.05.9-.07,1.35.02-.45.05-.9.07-1.35Z"/><path class="cls-17" d="m646.09,300.77c.55,7.46,1.1,14.91,1.66,22.37-2.75-7.51-7.89-15.06-3.62-22.42.65.02,1.31.03,1.96.05Z"/><path class="cls-7" d="m156.1,257.29c7.97-1.66,15.68-5.32,24.18-2.62,5.03,1.6,10.1,1.49,15.14-.41,5.26-1.98,10.38.28,15.52,1.02,1.92.28,3.77,1.09,5.64,1.66-.5.65-1,1.3-1.5,1.95-5.46.44-10.92.96-16.38,1.3-5.57.34-11.17.86-16.73.66-7.44-.26-14.85-1.13-22.28-1.74-.23,0-.46-.02-.69-.02-.35.35-.71.7-1.06,1.05.85.27,1.68.71,2.54.78,12.35.93,24.64,3.45,37.11,1.46,6.29-1.01,12.6-1.84,18.91-2.76l4.88.08c-6.14,7.36-14.54,10.81-23.5,12.73-14.36,3.08-27.55-1.23-40.16-7.69-2.01-1.03-3.53-3-5.28-4.53,1.07-.13,2.13-.26,3.2-.38.34-.26.69-.53,1.03-.79-.18-.58-.37-1.16-.55-1.74Z"/><path class="cls-4" d="m152.99,192.06c-1.2.52-2.4,1.04-3.6,1.56-7.59.12-15-.65-21.78-4.48l-.16-.11c-.29-.15-.57-.31-.86-.46-.31-.31-.63-.62-.93-.94-2.82-2.87-5.76-5.62-8.35-8.69-.61-.72-.52-3.03.15-3.64,5.44-4.99,11.5-8.89,19.16-9.54,4.79-.41,5.78.29,6.96,5.37-.63,3.03-3.31,3.73-6.07,1.59v-5.05c-3.55.83-4.14,3.88-4.94,6.76-.2.36-.52.71-.57,1.1-.57,5.1,2.31,8.23,6.21,10.78,3.47,2.27,6.97.96,10.09-.48,3.73-1.72,5.35-5.39,5.22-9.31-.11-3.28-.77-6.76-4.61-8.19-.23-.54-.46-1.08-.76-1.79,7.81,1.39,13.49,5.23,18.22,11.3,2.54,3.25,0,4.34-1.1,6.06-.78,1.22-2.34,1.95-3.55,2.89-.22.19-.45.38-.67.57-2.68,1.56-5.36,3.13-8.05,4.69Z"/><path class="cls-3" d="m263.3,158.15c-5.37-2.35-10.86-3.83-16.85-3.97-12.12-.29-23.71,1.95-35.07,5.95-2,.71-4.5,2.36-5.81-1.34-1.2-3.38-.61-6.07,2.79-7.05,5.26-1.52,10.68-2.62,16.1-3.41,5.53-.8,11.14-1.28,16.73-1.39,7.47-.14,14.46,1.79,20.31,6.69,1.2,1.01,1.89,2.61,2.82,3.94-.34.19-.67.38-1.01.57Z"/><path class="cls-3" d="m110.42,157.37c5.02-5.01,9.94-9.4,16.39-9.72,12.19-.6,24.46-.42,36.45,2.59,5.15,1.29,6.63,2.86,6.57,6.59-.06,3.4-1.05,4.16-4.38,3.31-5.11-1.3-10.15-2.9-15.32-3.87-12.67-2.38-25.38-3.99-37.83,1.27-.26.11-.63-.05-1.88-.17Z"/><path class="cls-19" d="m152.99,192.06c2.68-1.56,5.36-3.13,8.05-4.69.22-.19.45-.38.67-.57,1.21-.95,2.77-1.67,3.55-2.89,1.1-1.71,3.64-2.81,1.1-6.06-4.74-6.07-10.41-9.91-18.22-11.3.31.72.53,1.26.76,1.79-.92.71-1.83,1.42-2.75,2.13-.86.22-1.73.44-2.59.66-1.18-5.07-2.17-5.77-6.96-5.36-7.66.65-13.72,4.55-19.16,9.54-.66.61-.75,2.93-.15,3.64,2.59,3.06,5.53,5.82,8.35,8.69.31.31.62.63.93.94.29.15.57.31.86.46,0,0,.16.11.16.11-.6.32-1.2.64-1.8.96-6.09-3.28-10.77-8.11-14.87-13.55-.5-.67-.44-1.76-.64-2.66,2.82,2.07,4.9,1.67,6.12-1.8.29-.82.82-1.56,1.24-2.34,7.71-5.12,15.96-8.09,25.47-7.49,11.67.74,20.39,5.96,26.46,15.84,1.67,2.72.74,4.86-1.48,6.65-1.45,1.17-3.01,2.2-4.52,3.29-.17.16-.34.32-.51.47-3.13,1.82-6.01,4.36-10.07,3.53Zm-8.34-25.28c.1.13.2.26.31.38.78-.49,1.55-.98,2.33-1.47-.19-.2-.39-.41-.58-.61l-2.05,1.69Z"/><path class="cls-19" d="m220.6,192.62c-4.65-2.87-9.37-5.62-13.86-8.72-.74-.51-1.06-2.86-.54-3.79,5.95-10.65,14.68-16.75,27.33-17.2,9.76-.35,18.2,2.64,26.05,8,1.91,1.31,3.93,2.49,5.64,4.02.45.4.34,2.25-.19,2.78-3.95,3.96-8.03,7.79-12.14,11.57-.94.87-2.17,1.41-3.27,2.1-.43.23-.85.46-1.28.69-1.57.63-3.14,1.27-4.71,1.9,0-.57,0-1.13,0-1.7.47-.27.92-.62,1.42-.8,6.22-2.2,10.62-6.55,13.9-12.07.53-.9.63-2.88.03-3.49-5.5-5.6-11.89-9.5-20.1-9.44-3.01-1.2-6.09-1.6-9.17-.45-.88.33-1.57,1.18-2.34,1.79-1.2.11-2.42.11-3.59.35-7.01,1.39-10.81,6.91-14.99,11.87-.33.39.11,2.04.68,2.49,3.64,2.88,7.41,5.59,11.14,8.35,0,.57.01,1.14.02,1.71Z"/><path class="cls-5" d="m168.49,221.43c.66,2.17,1.2,3.67,1.55,5.21.66,2.85,2.98,3.45,5.17,3.15,3.88-.52,6.8,1.05,9.45,3.42,2.28,2.04,3.93,1.93,6.35-.14,1.88-1.61,4.66-2.39,7.16-3.03,2.32-.59,4.81-.5,7.22-.71.3-2.97.55-5.54.81-8.11,3.3,6.33.59,10.76-5.8,10.69-3.5-.04-6.57.33-9.3,2.87-2.36,2.2-5.06,2.12-7.47-.3-2.37-2.37-5.29-3.14-8.58-3.18-5.49-.07-8.09-3.72-6.56-9.89Z"/><path class="cls-15" d="m243.61,192.29c0,.57,0,1.13,0,1.7-7.92,3.68-15.53,2.24-23.01-1.37,0-.57-.01-1.14-.02-1.71,1.39.59,2.74,1.27,4.16,1.75,6.33,2.17,12.61,1.34,18.87-.37Z"/><path class="cls-15" d="m125.8,190.1c.6-.32,1.2-.64,1.8-.96,6.78,3.83,14.19,4.6,21.78,4.48-2.6.64-5.33,2.11-7.78,1.75-5.5-.81-11.26-1.38-15.81-5.27Z"/><path class="cls-5" d="m199.62,200.6c-.76-6.75-1.52-13.51-2.27-20.26.45-.05.89-.1,1.34-.15.84,6.76,1.67,13.51,2.51,20.27-.52.05-1.05.09-1.57.14Z"/><path class="cls-5" d="m221.37,259.7c-1.63-.03-3.25-.05-4.88-.08-.47-.24-.94-.48-1.41-.73.5-.65,1-1.3,1.5-1.95,1.75-.12,3.5-.24,5.25-.36.3,0,.6-.01.89-.02.45.44.9.88,1.36,1.32-.9.6-1.81,1.21-2.71,1.81Z"/><path class="cls-19" d="m117.65,169.76c-.42.78-.95,1.51-1.24,2.34-1.22,3.47-3.29,3.87-6.12,1.8,1.85-2.45,3.9-4.54,7.36-4.13Z"/><path class="cls-5" d="m156.1,257.29c.18.58.37,1.16.55,1.74-.34.26-.69.53-1.03.79-1.07.13-2.13.26-3.2.38,0,0-.11,0-.11,0-.27-.17-.55-.34-.82-.51-.9-.57-1.8-1.13-2.69-1.7.09-.23.18-.47.28-.7h7.03Z"/><path class="cls-15" d="m248.33,192.09c.43-.23.86-.46,1.28-.69-.43.23-.85.46-1.28.69Z"/><path class="cls-7" d="m222.73,256.57c-.3,0-.59,0-.89.02.3,0,.59-.01.89-.02Z"/><path class="cls-15" d="m163.06,188.53c.17-.16.34-.32.51-.47-.17.16-.34.32-.51.47Z"/><path class="cls-7" d="m151.48,259.7c.27.17.55.34.82.51-.27-.17-.55-.34-.82-.51Z"/><path class="cls-14" d="m126.73,394.19c.01.45.02.9.04,1.35-.01-.45-.02-.9-.04-1.35Z"/><path class="cls-11" d="m127.45,404.81c.09.31.18.62.27.92-.09-.31-.18-.62-.27-.92Z"/><path class="cls-14" d="m126.85,396.86c.06.17.14.34.16.52,0,.06-.12.15-.18.22,0-.25.01-.49.02-.74Z"/><path class="cls-5" d="m593.49,248.3c-.45,0-.9-.01-1.35-.02.45,0,.9.01,1.35.02Z"/><path class="cls-5" d="m619.89,246.91c-.24.02-.47.05-.71.07.24-.02.47-.05.71-.07Z"/><path class="cls-4" d="m651.03,185.49c-3.96.63-7.91,1.54-11.9,1.83-4.98.37-9.6-1.03-13.76-3.92-1.06-.74-2.38-1.12-3.57-1.66-2.11-1.99-4.26-3.94-6.29-6.02-.52-.53-1.04-1.62-.84-2.21,1.84-5.34,12.6-12.69,17.99-12.44-.54.95-1.03,1.92-1.63,2.83-2.45,3.75-2.96,9.83,1.32,13.74,2.62,2.39,5.56,4.26,9.4,3.13,4.49-1.32,8.08-3.38,8.69-8.77.38-3.36-.38-6.17-2.07-8.97-.42-.7-2.42-1.86-.06-2.81,7.11.68,12.94,3.86,17.54,9.2.57.67.62,2.47.13,3.26-3.15,5.13-7.52,9-12.96,11.63-.69.33-1.33.77-1.99,1.16Z"/><path class="cls-29" d="m648.76,160.29c1.68,2.8,3.06,7.36,2.68,10.72-.6,5.39-4.2,7.96-8.68,9.28-3.84,1.13-7.38-.61-10-3-4.29-3.91-4.45-10.25-2-14,.59-.91,2.36-2.27,2.91-3.22,1.67-.7,3.3-1.57,5.03-2.03,1.42-.38,2.66.09,2.5,2-.71,1.13-1.42,2.25-2.13,3.38-1.15.76-2.64,1.28-3.37,2.34-1.34,1.94-1.45,4.15.13,6.19,2.13,2.76,5.83,3.6,8.63,1.91,2.56-1.54-.31-2.3-1.7-5.56.02-2.03,3.81-6.99,3.83-9.03"/><path class="cls-4" d="m638.06,164.42c.71-1.13,1.42-2.25,2.13-3.38,1.8-.26,3.6-.52,5.4-.78-.02,2.03-.04,4.07-.07,6.1-3.11,2.44-5.12,1.91-7.46-1.95Z"/><path class="cls-4" d="m565.73,184.03c-.45.2-.89.41-1.34.61-.23.06-.46.13-.69.19-3.15.89-6.31,1.78-9.46,2.67-11.53-.26-20.25-5.66-27.19-14.56-1.4-1.8-1.46-3.21.08-4.62,4.55-4.17,9.42-7.81,15.81-8.65,1.29-.17,2.57-.39,3.85-.59,0,.62,0,1.24,0,1.85-5.35,4.06-6.2,9.35-2.42,15.07,2.41,3.64,6.19,5.3,10.23,4.5,4.64-.91,8.68-4.5,9.04-8.99.32-3.94,0-8.04-4.51-10.11-.46-.21-.56-1.2-.83-1.83,7.81,1.43,14.17,5.17,18.68,11.78,1.4,2.05,1.31,3.95-1.09,5.29-3.39,2.46-6.78,4.92-10.17,7.38Z"/><path class="cls-29" d="m558.31,159.58c.27.63.37,1.62.83,1.83,4.51,2.07,4.83,6.17,4.51,10.11-.37,4.49-4.41,8.08-9.04,8.99-4.05.8-7.83-.87-10.23-4.5-3.78-5.72-2.93-11.01,2.42-15.07.05.51.11,1.02.16,1.53.43,1.28.86,2.55,1.3,3.83-2.15.36.2,2.32.51,4,.7,3.89,2.06,2.56,6,1,2.42-.96,5.27-1.23,4.55-3.96-.65-2.46-2.44-3.34-4.91-2.92-9.64-2.12-7.41-3.8-8.64-5.12,1.12-.69,7.2-.23,8.32-.92,1.41.4,2.83.8,4.24,1.2Z"/><path class="cls-15" d="m563.7,184.83c.23-.06.46-.13.69-.19-.23.06-.46.13-.69.19Z"/><path class="cls-20" d="m215.08,258.9c.47.24.94.49,1.41.73-6.3.91-12.62,1.75-18.91,2.76-12.48,2-24.76-.52-37.11-1.46-.86-.07-1.69-.51-2.54-.78.35-.35.71-.7,1.06-1.05.23,0,.46.02.69.02,7.43.61,14.84,1.48,22.28,1.74,5.56.19,11.16-.32,16.73-.66,5.47-.34,10.92-.86,16.38-1.3Z"/><path class="cls-5" d="m159.69,259.12c-.23,0-.46-.02-.69-.02.23,0,.46.02.69.02Z"/><path class="cls-20" d="m155.62,259.83c.34-.26.68-.53,1.03-.79-.34.26-.68.53-1.03.79Z"/><path class="cls-15" d="m146.15,170.47c.92-.71,1.83-1.42,2.75-2.13,3.83,1.43,4.5,4.9,4.61,8.19.13,3.92-1.49,7.59-5.22,9.31-3.12,1.44-6.62,2.75-10.09.48-3.89-2.55-6.78-5.68-6.21-10.78.04-.38.37-.73.57-1.09,1.17.48,2.33.95,3.5,1.43.83,2.86,1.75,5.75,5.34,6.05,3.01.25,5.9-.22,7.39-3.38,1.42-3,.63-5.28-2.63-8.07Z"/><path class="cls-9" d="m146.15,170.47c3.27,2.79,4.05,5.07,2.63,8.07-1.49,3.16-4.39,3.63-7.39,3.38-3.59-.29-4.51-3.19-5.34-6.05.48-1.05.96-2.09,1.44-3.14,2.76,2.14,5.44,1.44,6.07-1.59.86-.22,1.73-.44,2.59-.67Z"/><path class="cls-19" d="m137.5,172.73c-.48,1.05-.96,2.09-1.44,3.14-1.17-.48-2.33-.95-3.5-1.43.8-2.88,1.39-5.93,4.94-6.76v5.05Z"/><path class="cls-15" d="m127.45,189.03c-.29-.15-.57-.31-.86-.46.29.15.57.31.86.46Z"/><path class="cls-15" d="m161.71,186.8c-.22.19-.45.38-.67.57.22-.19.45-.38.67-.57Z"/><path class="cls-15" d="m144.65,166.78l2.05-1.69c.19.2.39.41.58.61-.78.49-1.55.98-2.33,1.47-.1-.13-.2-.26-.31-.38Z"/><path class="cls-4" d="m243.61,192.29c-6.26,1.72-12.54,2.55-18.87.37-1.42-.49-2.78-1.16-4.16-1.75-3.73-2.76-7.5-5.47-11.14-8.35-.57-.45-1.01-2.1-.68-2.49,4.18-4.96,7.98-10.48,14.99-11.87,1.17-.23,2.39-.24,3.59-.35,0,0-.05-.07-.05-.07-1.57,2.99-4.04,5.85-4.51,9-.83,5.62,5.68,11.75,11,11.26,6.24-.57,10.47-6.25,10.12-12.43-.23-3.99-3.16-5.87-4.96-8.65.04-.17.01-.32-.09-.46,8.2-.06,14.6,3.84,20.1,9.44.6.61.5,2.59-.03,3.49-3.28,5.52-7.68,9.87-13.9,12.07-.5.18-.95.53-1.42.8Z"/><path class="cls-19" d="m238.87,166.51c.1.14.13.29.09.46-.76.31-1.52.61-2.27.92-.78.01-1.55.03-2.33.04-2.35-.04-4.7-.09-7.05-.13,0,0,.05.07.05.07.78-.61,1.46-1.47,2.34-1.79,3.08-1.15,6.16-.75,9.17.45Z"/><path class="cls-9" d="m638.44,164.42c2.54,3.87,4.73,4.39,8.11,1.95,1.51,3.26.54,6.94-2.24,8.49-3.04,1.69-7.06.85-9.38-1.91-1.72-2.05-1.6-4.26-.15-6.19.79-1.05,2.41-1.57,3.66-2.34Z"/><path class="cls-9" d="m554.39,162.41c2.47-.42,4.26.46,4.91,2.92.72,2.73-1.11,6.29-3.53,7.25-3.94,1.56-8.8-.84-9.5-4.73-.3-1.68-.17-3.2,1.98-3.56,3.26,1.61,4.61,1.2,6.14-1.88Z"/><path class="cls-4" d="m554.39,164.41c-1.54,3.07-2.89,3.49-6.14,1.88-.43-1.28-.87-2.55-1.3-3.83,1.26-.67,2.51-1.35,3.77-2.02,1.22,1.32,2.45,2.65,3.67,3.97Z"/><path class="cls-15" d="m236.68,167.88c.76-.3,1.52-.61,2.27-.91,1.79,2.79,4.73,4.66,4.96,8.65.35,6.19-3.88,11.86-10.12,12.43-5.32.49-11.83-5.64-11-11.26.47-3.15,2.94-6.01,4.51-9,2.35.04,4.7.09,7.05.13-.75.64-1.5,1.27-2.25,1.91-3.08-.76-3.32,2.11-3.83,3.62-.64,1.9-.99,4.88.05,6.1,1.35,1.59,4.25,2.75,6.39,2.62,4.5-.28,5.45-2.56,4.78-9.07-.93-1.74-1.87-3.48-2.81-5.22Z"/><path class="cls-4" d="m232.1,169.83c.75-.64,1.5-1.27,2.25-1.91.78-.01,1.55-.03,2.33-.04.93,1.74,1.87,3.48,2.81,5.22-4.64,2.7-7.2,1.56-7.38-3.27Z"/><path class="cls-9" d="m232.1,169.83c.18,4.83,2.75,5.97,7.38,3.27.67,6.5-.28,8.79-4.78,9.07-2.14.13-5.04-1.02-6.39-2.62-1.04-1.23-.68-4.21-.05-6.1.51-1.51.75-4.38,3.83-3.62Z"/><polygon class="cls-8" points="707.22 392.09 694.89 467.91 659.84 465.03 658.26 385.79 708.26 385.79 707.22 392.09"/><path class="cls-23" d="m717.85,87.39c-1.39-13.87-15.3-32.48-31.03-39.25-18.86-8.11-32.88-24.09-52.77-29.71-10.67-3.01-11.13-2.73-22.32-2.88-1.43-.02-16.17,1.87-17.59,1.89-8.8.12-14.66-5.04-23.41-4.33-6.71.54-11.76,4.76-15.71,10.21-.46,1.29-.92,2.58-1.39,3.87-1.61,5.29-3.21,10.57-4.82,15.86l-1.2-.35c1.35-4.95,2.71-9.89,4.06-14.84.2-.24.39-.48.59-.72v-.05c0-1.01,0-2.02.01-3.02-11.35,3.26-21.57,9.14-31.42,15.33-13.37,8.41-25.52,18.6-35,31.56-4.98,6.8-8.97,14.27-11.12,22.48-1.84,7.03-3.2,14.22-4.31,21.41-1.43,9.22-2.96,18.46-3.93,27.74,1.14,2.38,1.47,5.21,1,8.02-2.93,17.38-.34,35.39-.39,52.9-.05,16.85-1.16,33.68-1.27,50.53-.13,17.97-.6,35.94-1.07,53.9-.77,29.36-.62,46.8-.65,76.15,4.29.22,8.59.37,12.9.29,9.26-.16,18.52,1.77,27.78,1.83.02.74.09,1.41.13,0,.03,0,.05,0,.08,0-.02-.19-.04-.34-.06-.47.28-8.97,3.66-16.12,4.45-25.09.6-6.86,1.52-12.41,5.95-17.8,2.4-2.92,3.47-5.34,4.93-8.89,1.23-2.99,3.6-6.68,6.87-6.9,6.97-.47,12.65-1.73,19.55-2.87,1.55-.26,6.66-.72,8.08-1.78-.67-.6-5.29-3.15-5.89-3.82-1.65-1.83-3.56-3.51-4.8-5.6-2.03-3.42-3.78-6.52-8.19-7.71-4.99-1.35-9.67-3.88-14.48-5.89-2.27-2.02-5.11-3.66-6.66-6.14-2.41-3.84-4.03-8.21-5.75-12.46-.28-.68.66-1.87,1.03-2.82-1.25-3.55-2.27-7.22-3.81-10.64-2.38-5.28-5.11-10.39-7.69-15.57-2-2.91-4.15-5.74-5.84-8.82-.26-.48,1.56-2.13,2.42-3.24l-.03.03c.87-1.36,1.75-2.71,2.62-4.07,2.28-3.88,4.63-7.72,6.81-11.65,1.16-2.09,1.97-4.38,3.05-6.53.25-.49.55-.95.87-1.41-.05-.42-.08-.84-.07-1.27.05-3.69.95-7.18,1.8-10.73-.61-4.65-1.18-9.3-1.55-13.96-.71-9.04-.99-18.13-1.12-27.2-.03-1.82,1.06-3.98,2.27-5.44,11.52-13.85,21.99-28.29,28.05-45.64,3.57-10.23,7.89-20.19,11.76-30.32,1.35-3.53,4.4-3.55,7.24-4.1,3.2-.62,6.41-1.26,9.64-1.65,5.2-.64,10.42-1.16,15.64-1.6,3.71-.32,7.43-.67,11.14-.61,11.4.19,22.86,0,33.91,3.51,6.17,1.97,12.57,3.52,18.36,6.34,7.35,3.58,11.51,8.55,11.03,16.89-.56,9.67.92,19.16,3.55,28.49,1.74,6.16,3.08,12.44,4.6,18.66,2.64,1.19,2.1,3.24,1.42,5.34l5.45,12.79c1,2.03,2,4.06,3,6.09,3.88,8.9,7.34,17.87,5,27.92-.17.73-.1,1.51-.15,2.27.7.01,1.98,7.12,2.69,7.13.3-1.73.03-10.54.34-12.27.36.04.73.07,1.09.11-.03,5.1,0,12.18-.16,17.28-.02.59-1.1,1.14-1.69,1.7.57,7.36,1.47,12.74,1.61,20.11.1,5.14-.84,10.31-1.29,15.46-.22,2.53-.84,5.13-.46,7.57.5,3.12.1,5.82-1.49,8.43,1.61,4.02.02,7.41-2.06,10.71l.02-.03c0,4.23.14,8.49-2.72,12.05h0c-.15,2.18.74,4.73-2.02,6.02-.19.2-.38.4-.57.6-2.26,8.44-4.57,16.87-6.75,25.33-.52,2-1.19,3.55-3.5,3.66.44,4.29,1.1,8.58,1.26,12.88.25,6.52-2.06,12.43-5.25,17.94-1.71,2.96-3.8,5.71-5.81,8.48-5.4,7.45-5.09,15-.57,22.69.78,1.33,1.43,2.74,2.14,4.11.09.34.19-3.28.28-2.93,5.74-.39,5.32-.46,11.07-.76-.06-.65,5.08-.4,7.93-.53.01.05.02.09.03.16,3.34-.16,10.59,1.45,11.56,1.46,1.95,0,13.95-.21,21.7-.18,2.79-2.7,3.06-4.65,2.98-8.44-.1-4.64,1.2-8.21,4.8-11,1.35-1.04,2.64-2.16,3.93-3.26l.14-27.29-.78-251.72Zm-245.42,291.2c.33.29.67.59,1,.88-.07.07-.14.15-.22.22-.29-.34-.58-.67-.88-1.01-4.1-4.44-3.59-12.52,1.64-16.92-2.64,5.84-3.88,11.23-1.55,16.83Zm18.21,5.77c-2.9-2.34-2.72-13.1,0-17.18v17.18Zm.03-17.23c.34-.64.69-1.28,1.03-1.92.28.23.55.46.83.69-.62.41-1.24.82-1.86,1.23Zm2.86-3.51c-.66-6.22,3.52-11.95.92-18.14-2.32-5.53-3.95-11.35-5.74-16.62,6.77,4.27,11.14,31,4.82,34.76Zm57.24-299.37c-2.13-6.33-4.27-12.66-6.4-18.99.38-.14.76-.27,1.14-.41,2.14,6.33,4.27,12.65,6.41,18.98l-1.15.42Zm142.46,280.61c-.11.27-1.08.17-1.65.24-1.24,2.02-2.24,4.25-3.78,6.01-3.56,4.08-7.38,7.92-11.08,11.88-2.1,2.24-3.54,4.78-4.31,7.59.07-4.01,1.32-7.72,5.02-11.08,4.97-4.51,9.45-9.58,14.15-14.41,2.43-5.64,4.86-11.28,7.29-16.92.34.14.69.27,1.03.41-2.2,5.44-4.39,10.88-6.67,16.29Z"/><polygon class="cls-19" points="652.39 160.51 644.3 160.23 640.19 161.04 632.23 161.04 630.16 159.79 637.26 156.79 652.39 157.8 652.39 160.51"/><polygon class="cls-19" points="544.06 159.08 548.88 158.88 555.11 158.75 562.45 160.23 565.19 161.04 566.85 159.08 554.39 155.52 543.57 156.37 544.06 159.08"/><polygon class="cls-8" points="528.78 408.94 529.49 478.57 507.26 489.79 509.26 410.79 528.78 408.94"/><polygon class="cls-8" points="649.39 430.08 652.61 428.81 657 394.87 652.26 398.35 649.39 430.08"/><polygon class="cls-23" points="683.26 316.44 660.26 385.79 698.26 387.79 712.26 322.79 683.26 316.44"/><polygon class="cls-23" points="467.95 318.73 465.26 384.79 498.59 386.31 505.26 319.79 467.95 318.73"/><polygon class="cls-23" points="719.34 365.52 719.81 388.57 704.63 388.57 703.26 374.79 719.34 365.52"/><polygon class="cls-19" points="663.26 163.79 668.26 163.79 666.26 165.79 670.26 164.79 668.26 166.79 673.29 167.21 672.26 168.79 674.04 169.02 670.59 172.5 663.26 163.79"/><polygon class="cls-19" points="518.26 168.79 517.26 165.79 520.11 166.44 518.74 164.31 520.82 165.11 520.67 162.14 522.26 162.46 522.27 161.39 527.26 163.79 518.26 168.79"/><polyline class="cls-19" points="527.26 163.79 519.26 167.79 520.26 168.79 527.26 164.79 527.26 163.66"/><polygon class="cls-19" points="260.57 170.92 264.04 170.47 260.57 173.62 266.5 172.04 261.86 175.15 267.26 174.79 266.48 176.34 264.14 177.94 258.04 171.78 260.57 170.92"/><polygon class="cls-19" points="116.22 168.38 113.82 167.19 115.45 170.96 111.57 168.16 114.07 172.16 110.23 170.63 110.35 172.29 111.61 174.32 117.83 169.75 116.22 168.38"/><path class="cls-12" d="m134.37,427.59l-3.42-1.15c-1.2-.29-3.94-3.08-5.17-3.78,0,0-.56-.91-1.4-2.34-1.51,1.97-3.61,3.48-5.9,4.1-.61.17-1.21.26-1.81.32,2.44,2.89,8.26,9,9.08,9.32l4.15,1.86c1.75.69,3.74.09,4.81-1.45l2.03-2.93c.33-1.57.38-3.28-2.38-3.95Z"/><polyline class="cls-23" points="695.69 189.48 682.16 192.4 680.21 214.38 692.56 221.03 695.69 191.62"/></g><g id="Layer_2-2"><polygon class="cls-23" points="565.74 14.28 515.8 34.83 485.86 70.96 565.73 66.67 565.74 14.28"/><path class="cls-12" d="m515.27,353.93l-2.57,12.86c-.02.27.02,20.63.05,20.9l1.95,16.1c.14,1.09,6.12,12.34,7,13l3.52,2.88c1.5,1.12,3.58,1.06,5.02-.15l2.73-2.3c.73-1.43,1.22-3.07-1.27-4.43l-3-2c-1.08-.59-3-4-4-5l-2-5c-.03-.15-2.45-9.99-2-16l-1.61-16.51c-.25-.86-.21-1.79.13-2.62l5.21-13.11c.33-.83.38-1.74.13-2.6h0c-.3-.14-.72-2.04-2.3-2.14s-4.55-.09-5.3,1.66l-1.37,3.19c-.17.41-.28.84-.31,1.28Z"/></g></svg>